G04 #@! TF.FileFunction,Profile,NP*
%FSLAX46Y46*%
G04 Gerber Fmt 4.6, Leading zero omitted, Abs format (unit mm)*
G04 Created by KiCad (PCBNEW 4.0.6) date Friday, 11 August 2017 'AMt' 02:59:44*
%MOMM*%
%LPD*%
G01*
G04 APERTURE LIST*
%ADD10C,0.100000*%
G04 APERTURE END LIST*
D10*
X65000000Y-3500000D02*
G75*
G03X62000000Y-500000I-3000000J0D01*
G01*
X3000000Y-500000D02*
X62000000Y-500000D01*
X3000000Y-500000D02*
G75*
G03X0Y-3500000I0J-3000000D01*
G01*
X46000000Y-52500000D02*
G75*
G02X44000000Y-52500000I-1000000J0D01*
G01*
X46000000Y-37500000D02*
G75*
G03X44000000Y-37500000I-1000000J0D01*
G01*
X46000000Y-37500000D02*
X46000000Y-52500000D01*
X44000000Y-37500000D02*
X44000000Y-52500000D01*
X1000000Y-37000000D02*
G75*
G03X0Y-38000000I0J-1000000D01*
G01*
X4000000Y-37000000D02*
G75*
G03X5000000Y-36000000I0J1000000D01*
G01*
X5000000Y-21000000D02*
G75*
G03X4000000Y-20000000I-1000000J0D01*
G01*
X0Y-19000000D02*
G75*
G03X1000000Y-20000000I1000000J0D01*
G01*
X62000000Y-56500000D02*
G75*
G03X65000000Y-53500000I0J3000000D01*
G01*
X0Y-53500000D02*
G75*
G03X3000000Y-56500000I3000000J0D01*
G01*
X0Y-38000000D02*
X0Y-53500000D01*
X0Y-3000000D02*
X0Y-19000000D01*
X1000000Y-37000000D02*
X4000000Y-37000000D01*
X1000000Y-20000000D02*
X4000000Y-20000000D01*
X5000000Y-21000000D02*
X5000000Y-36000000D01*
X3000000Y-56500000D02*
X62000000Y-56500000D01*
X65000000Y-3000000D02*
X65000000Y-53500000D01*
M02*
