G04 #@! TF.FileFunction,Legend,Top*
%FSLAX46Y46*%
G04 Gerber Fmt 4.6, Leading zero omitted, Abs format (unit mm)*
G04 Created by KiCad (PCBNEW 4.0.6) date Wednesday, 16 August 2017 'AMt' 01:40:11*
%MOMM*%
%LPD*%
G01*
G04 APERTURE LIST*
%ADD10C,0.100000*%
%ADD11C,0.200000*%
%ADD12C,0.150000*%
%ADD13C,0.120000*%
G04 APERTURE END LIST*
D10*
D11*
X48895000Y-36093400D02*
X64541400Y-36093400D01*
X25476200Y-48539400D02*
X41376600Y-48539400D01*
X12744486Y-54522714D02*
X12744486Y-55189381D01*
X12506390Y-54141762D02*
X12268295Y-54856048D01*
X12887343Y-54856048D01*
X13458771Y-54189381D02*
X13554010Y-54189381D01*
X13649248Y-54237000D01*
X13696867Y-54284619D01*
X13744486Y-54379857D01*
X13792105Y-54570333D01*
X13792105Y-54808429D01*
X13744486Y-54998905D01*
X13696867Y-55094143D01*
X13649248Y-55141762D01*
X13554010Y-55189381D01*
X13458771Y-55189381D01*
X13363533Y-55141762D01*
X13315914Y-55094143D01*
X13268295Y-54998905D01*
X13220676Y-54808429D01*
X13220676Y-54570333D01*
X13268295Y-54379857D01*
X13315914Y-54284619D01*
X13363533Y-54237000D01*
X13458771Y-54189381D01*
X12220676Y-51852581D02*
X12839724Y-51852581D01*
X12506390Y-52233533D01*
X12649248Y-52233533D01*
X12744486Y-52281152D01*
X12792105Y-52328771D01*
X12839724Y-52424010D01*
X12839724Y-52662105D01*
X12792105Y-52757343D01*
X12744486Y-52804962D01*
X12649248Y-52852581D01*
X12363533Y-52852581D01*
X12268295Y-52804962D01*
X12220676Y-52757343D01*
X13411152Y-52281152D02*
X13315914Y-52233533D01*
X13268295Y-52185914D01*
X13220676Y-52090676D01*
X13220676Y-52043057D01*
X13268295Y-51947819D01*
X13315914Y-51900200D01*
X13411152Y-51852581D01*
X13601629Y-51852581D01*
X13696867Y-51900200D01*
X13744486Y-51947819D01*
X13792105Y-52043057D01*
X13792105Y-52090676D01*
X13744486Y-52185914D01*
X13696867Y-52233533D01*
X13601629Y-52281152D01*
X13411152Y-52281152D01*
X13315914Y-52328771D01*
X13268295Y-52376390D01*
X13220676Y-52471629D01*
X13220676Y-52662105D01*
X13268295Y-52757343D01*
X13315914Y-52804962D01*
X13411152Y-52852581D01*
X13601629Y-52852581D01*
X13696867Y-52804962D01*
X13744486Y-52757343D01*
X13792105Y-52662105D01*
X13792105Y-52471629D01*
X13744486Y-52376390D01*
X13696867Y-52328771D01*
X13601629Y-52281152D01*
X12220676Y-49058581D02*
X12839724Y-49058581D01*
X12506390Y-49439533D01*
X12649248Y-49439533D01*
X12744486Y-49487152D01*
X12792105Y-49534771D01*
X12839724Y-49630010D01*
X12839724Y-49868105D01*
X12792105Y-49963343D01*
X12744486Y-50010962D01*
X12649248Y-50058581D01*
X12363533Y-50058581D01*
X12268295Y-50010962D01*
X12220676Y-49963343D01*
X13696867Y-49058581D02*
X13506390Y-49058581D01*
X13411152Y-49106200D01*
X13363533Y-49153819D01*
X13268295Y-49296676D01*
X13220676Y-49487152D01*
X13220676Y-49868105D01*
X13268295Y-49963343D01*
X13315914Y-50010962D01*
X13411152Y-50058581D01*
X13601629Y-50058581D01*
X13696867Y-50010962D01*
X13744486Y-49963343D01*
X13792105Y-49868105D01*
X13792105Y-49630010D01*
X13744486Y-49534771D01*
X13696867Y-49487152D01*
X13601629Y-49439533D01*
X13411152Y-49439533D01*
X13315914Y-49487152D01*
X13268295Y-49534771D01*
X13220676Y-49630010D01*
X12220676Y-46620181D02*
X12839724Y-46620181D01*
X12506390Y-47001133D01*
X12649248Y-47001133D01*
X12744486Y-47048752D01*
X12792105Y-47096371D01*
X12839724Y-47191610D01*
X12839724Y-47429705D01*
X12792105Y-47524943D01*
X12744486Y-47572562D01*
X12649248Y-47620181D01*
X12363533Y-47620181D01*
X12268295Y-47572562D01*
X12220676Y-47524943D01*
X13696867Y-46953514D02*
X13696867Y-47620181D01*
X13458771Y-46572562D02*
X13220676Y-47286848D01*
X13839724Y-47286848D01*
X12220676Y-44029381D02*
X12839724Y-44029381D01*
X12506390Y-44410333D01*
X12649248Y-44410333D01*
X12744486Y-44457952D01*
X12792105Y-44505571D01*
X12839724Y-44600810D01*
X12839724Y-44838905D01*
X12792105Y-44934143D01*
X12744486Y-44981762D01*
X12649248Y-45029381D01*
X12363533Y-45029381D01*
X12268295Y-44981762D01*
X12220676Y-44934143D01*
X13220676Y-44124619D02*
X13268295Y-44077000D01*
X13363533Y-44029381D01*
X13601629Y-44029381D01*
X13696867Y-44077000D01*
X13744486Y-44124619D01*
X13792105Y-44219857D01*
X13792105Y-44315095D01*
X13744486Y-44457952D01*
X13173057Y-45029381D01*
X13792105Y-45029381D01*
X12220676Y-41336981D02*
X12839724Y-41336981D01*
X12506390Y-41717933D01*
X12649248Y-41717933D01*
X12744486Y-41765552D01*
X12792105Y-41813171D01*
X12839724Y-41908410D01*
X12839724Y-42146505D01*
X12792105Y-42241743D01*
X12744486Y-42289362D01*
X12649248Y-42336981D01*
X12363533Y-42336981D01*
X12268295Y-42289362D01*
X12220676Y-42241743D01*
X13458771Y-41336981D02*
X13554010Y-41336981D01*
X13649248Y-41384600D01*
X13696867Y-41432219D01*
X13744486Y-41527457D01*
X13792105Y-41717933D01*
X13792105Y-41956029D01*
X13744486Y-42146505D01*
X13696867Y-42241743D01*
X13649248Y-42289362D01*
X13554010Y-42336981D01*
X13458771Y-42336981D01*
X13363533Y-42289362D01*
X13315914Y-42241743D01*
X13268295Y-42146505D01*
X13220676Y-41956029D01*
X13220676Y-41717933D01*
X13268295Y-41527457D01*
X13315914Y-41432219D01*
X13363533Y-41384600D01*
X13458771Y-41336981D01*
X12268295Y-38841419D02*
X12315914Y-38793800D01*
X12411152Y-38746181D01*
X12649248Y-38746181D01*
X12744486Y-38793800D01*
X12792105Y-38841419D01*
X12839724Y-38936657D01*
X12839724Y-39031895D01*
X12792105Y-39174752D01*
X12220676Y-39746181D01*
X12839724Y-39746181D01*
X13696867Y-38746181D02*
X13506390Y-38746181D01*
X13411152Y-38793800D01*
X13363533Y-38841419D01*
X13268295Y-38984276D01*
X13220676Y-39174752D01*
X13220676Y-39555705D01*
X13268295Y-39650943D01*
X13315914Y-39698562D01*
X13411152Y-39746181D01*
X13601629Y-39746181D01*
X13696867Y-39698562D01*
X13744486Y-39650943D01*
X13792105Y-39555705D01*
X13792105Y-39317610D01*
X13744486Y-39222371D01*
X13696867Y-39174752D01*
X13601629Y-39127133D01*
X13411152Y-39127133D01*
X13315914Y-39174752D01*
X13268295Y-39222371D01*
X13220676Y-39317610D01*
X12268295Y-36555419D02*
X12315914Y-36507800D01*
X12411152Y-36460181D01*
X12649248Y-36460181D01*
X12744486Y-36507800D01*
X12792105Y-36555419D01*
X12839724Y-36650657D01*
X12839724Y-36745895D01*
X12792105Y-36888752D01*
X12220676Y-37460181D01*
X12839724Y-37460181D01*
X13696867Y-36793514D02*
X13696867Y-37460181D01*
X13458771Y-36412562D02*
X13220676Y-37126848D01*
X13839724Y-37126848D01*
X12268295Y-34117019D02*
X12315914Y-34069400D01*
X12411152Y-34021781D01*
X12649248Y-34021781D01*
X12744486Y-34069400D01*
X12792105Y-34117019D01*
X12839724Y-34212257D01*
X12839724Y-34307495D01*
X12792105Y-34450352D01*
X12220676Y-35021781D01*
X12839724Y-35021781D01*
X13220676Y-34117019D02*
X13268295Y-34069400D01*
X13363533Y-34021781D01*
X13601629Y-34021781D01*
X13696867Y-34069400D01*
X13744486Y-34117019D01*
X13792105Y-34212257D01*
X13792105Y-34307495D01*
X13744486Y-34450352D01*
X13173057Y-35021781D01*
X13792105Y-35021781D01*
X12268295Y-31424619D02*
X12315914Y-31377000D01*
X12411152Y-31329381D01*
X12649248Y-31329381D01*
X12744486Y-31377000D01*
X12792105Y-31424619D01*
X12839724Y-31519857D01*
X12839724Y-31615095D01*
X12792105Y-31757952D01*
X12220676Y-32329381D01*
X12839724Y-32329381D01*
X13458771Y-31329381D02*
X13554010Y-31329381D01*
X13649248Y-31377000D01*
X13696867Y-31424619D01*
X13744486Y-31519857D01*
X13792105Y-31710333D01*
X13792105Y-31948429D01*
X13744486Y-32138905D01*
X13696867Y-32234143D01*
X13649248Y-32281762D01*
X13554010Y-32329381D01*
X13458771Y-32329381D01*
X13363533Y-32281762D01*
X13315914Y-32234143D01*
X13268295Y-32138905D01*
X13220676Y-31948429D01*
X13220676Y-31710333D01*
X13268295Y-31519857D01*
X13315914Y-31424619D01*
X13363533Y-31377000D01*
X13458771Y-31329381D01*
X12839724Y-29738581D02*
X12268295Y-29738581D01*
X12554009Y-29738581D02*
X12554009Y-28738581D01*
X12458771Y-28881438D01*
X12363533Y-28976676D01*
X12268295Y-29024295D01*
X13411152Y-29167152D02*
X13315914Y-29119533D01*
X13268295Y-29071914D01*
X13220676Y-28976676D01*
X13220676Y-28929057D01*
X13268295Y-28833819D01*
X13315914Y-28786200D01*
X13411152Y-28738581D01*
X13601629Y-28738581D01*
X13696867Y-28786200D01*
X13744486Y-28833819D01*
X13792105Y-28929057D01*
X13792105Y-28976676D01*
X13744486Y-29071914D01*
X13696867Y-29119533D01*
X13601629Y-29167152D01*
X13411152Y-29167152D01*
X13315914Y-29214771D01*
X13268295Y-29262390D01*
X13220676Y-29357629D01*
X13220676Y-29548105D01*
X13268295Y-29643343D01*
X13315914Y-29690962D01*
X13411152Y-29738581D01*
X13601629Y-29738581D01*
X13696867Y-29690962D01*
X13744486Y-29643343D01*
X13792105Y-29548105D01*
X13792105Y-29357629D01*
X13744486Y-29262390D01*
X13696867Y-29214771D01*
X13601629Y-29167152D01*
X12839724Y-27046181D02*
X12268295Y-27046181D01*
X12554009Y-27046181D02*
X12554009Y-26046181D01*
X12458771Y-26189038D01*
X12363533Y-26284276D01*
X12268295Y-26331895D01*
X13696867Y-26046181D02*
X13506390Y-26046181D01*
X13411152Y-26093800D01*
X13363533Y-26141419D01*
X13268295Y-26284276D01*
X13220676Y-26474752D01*
X13220676Y-26855705D01*
X13268295Y-26950943D01*
X13315914Y-26998562D01*
X13411152Y-27046181D01*
X13601629Y-27046181D01*
X13696867Y-26998562D01*
X13744486Y-26950943D01*
X13792105Y-26855705D01*
X13792105Y-26617610D01*
X13744486Y-26522371D01*
X13696867Y-26474752D01*
X13601629Y-26427133D01*
X13411152Y-26427133D01*
X13315914Y-26474752D01*
X13268295Y-26522371D01*
X13220676Y-26617610D01*
X12839724Y-24709381D02*
X12268295Y-24709381D01*
X12554009Y-24709381D02*
X12554009Y-23709381D01*
X12458771Y-23852238D01*
X12363533Y-23947476D01*
X12268295Y-23995095D01*
X13696867Y-24042714D02*
X13696867Y-24709381D01*
X13458771Y-23661762D02*
X13220676Y-24376048D01*
X13839724Y-24376048D01*
X12738124Y-22169381D02*
X12166695Y-22169381D01*
X12452409Y-22169381D02*
X12452409Y-21169381D01*
X12357171Y-21312238D01*
X12261933Y-21407476D01*
X12166695Y-21455095D01*
X13119076Y-21264619D02*
X13166695Y-21217000D01*
X13261933Y-21169381D01*
X13500029Y-21169381D01*
X13595267Y-21217000D01*
X13642886Y-21264619D01*
X13690505Y-21359857D01*
X13690505Y-21455095D01*
X13642886Y-21597952D01*
X13071457Y-22169381D01*
X13690505Y-22169381D01*
X12839724Y-19476981D02*
X12268295Y-19476981D01*
X12554009Y-19476981D02*
X12554009Y-18476981D01*
X12458771Y-18619838D01*
X12363533Y-18715076D01*
X12268295Y-18762695D01*
X13458771Y-18476981D02*
X13554010Y-18476981D01*
X13649248Y-18524600D01*
X13696867Y-18572219D01*
X13744486Y-18667457D01*
X13792105Y-18857933D01*
X13792105Y-19096029D01*
X13744486Y-19286505D01*
X13696867Y-19381743D01*
X13649248Y-19429362D01*
X13554010Y-19476981D01*
X13458771Y-19476981D01*
X13363533Y-19429362D01*
X13315914Y-19381743D01*
X13268295Y-19286505D01*
X13220676Y-19096029D01*
X13220676Y-18857933D01*
X13268295Y-18667457D01*
X13315914Y-18572219D01*
X13363533Y-18524600D01*
X13458771Y-18476981D01*
X12579362Y-16568752D02*
X12484124Y-16521133D01*
X12436505Y-16473514D01*
X12388886Y-16378276D01*
X12388886Y-16330657D01*
X12436505Y-16235419D01*
X12484124Y-16187800D01*
X12579362Y-16140181D01*
X12769839Y-16140181D01*
X12865077Y-16187800D01*
X12912696Y-16235419D01*
X12960315Y-16330657D01*
X12960315Y-16378276D01*
X12912696Y-16473514D01*
X12865077Y-16521133D01*
X12769839Y-16568752D01*
X12579362Y-16568752D01*
X12484124Y-16616371D01*
X12436505Y-16663990D01*
X12388886Y-16759229D01*
X12388886Y-16949705D01*
X12436505Y-17044943D01*
X12484124Y-17092562D01*
X12579362Y-17140181D01*
X12769839Y-17140181D01*
X12865077Y-17092562D01*
X12912696Y-17044943D01*
X12960315Y-16949705D01*
X12960315Y-16759229D01*
X12912696Y-16663990D01*
X12865077Y-16616371D01*
X12769839Y-16568752D01*
X12865077Y-13600181D02*
X12674600Y-13600181D01*
X12579362Y-13647800D01*
X12531743Y-13695419D01*
X12436505Y-13838276D01*
X12388886Y-14028752D01*
X12388886Y-14409705D01*
X12436505Y-14504943D01*
X12484124Y-14552562D01*
X12579362Y-14600181D01*
X12769839Y-14600181D01*
X12865077Y-14552562D01*
X12912696Y-14504943D01*
X12960315Y-14409705D01*
X12960315Y-14171610D01*
X12912696Y-14076371D01*
X12865077Y-14028752D01*
X12769839Y-13981133D01*
X12579362Y-13981133D01*
X12484124Y-14028752D01*
X12436505Y-14076371D01*
X12388886Y-14171610D01*
X12865077Y-11342714D02*
X12865077Y-12009381D01*
X12626981Y-10961762D02*
X12388886Y-11676048D01*
X13007934Y-11676048D01*
X12388886Y-8513819D02*
X12436505Y-8466200D01*
X12531743Y-8418581D01*
X12769839Y-8418581D01*
X12865077Y-8466200D01*
X12912696Y-8513819D01*
X12960315Y-8609057D01*
X12960315Y-8704295D01*
X12912696Y-8847152D01*
X12341267Y-9418581D01*
X12960315Y-9418581D01*
X5159476Y-54290981D02*
X5778524Y-54290981D01*
X5445190Y-54671933D01*
X5588048Y-54671933D01*
X5683286Y-54719552D01*
X5730905Y-54767171D01*
X5778524Y-54862410D01*
X5778524Y-55100505D01*
X5730905Y-55195743D01*
X5683286Y-55243362D01*
X5588048Y-55290981D01*
X5302333Y-55290981D01*
X5207095Y-55243362D01*
X5159476Y-55195743D01*
X6254714Y-55290981D02*
X6445190Y-55290981D01*
X6540429Y-55243362D01*
X6588048Y-55195743D01*
X6683286Y-55052886D01*
X6730905Y-54862410D01*
X6730905Y-54481457D01*
X6683286Y-54386219D01*
X6635667Y-54338600D01*
X6540429Y-54290981D01*
X6349952Y-54290981D01*
X6254714Y-54338600D01*
X6207095Y-54386219D01*
X6159476Y-54481457D01*
X6159476Y-54719552D01*
X6207095Y-54814790D01*
X6254714Y-54862410D01*
X6349952Y-54910029D01*
X6540429Y-54910029D01*
X6635667Y-54862410D01*
X6683286Y-54814790D01*
X6730905Y-54719552D01*
X5159476Y-51750981D02*
X5778524Y-51750981D01*
X5445190Y-52131933D01*
X5588048Y-52131933D01*
X5683286Y-52179552D01*
X5730905Y-52227171D01*
X5778524Y-52322410D01*
X5778524Y-52560505D01*
X5730905Y-52655743D01*
X5683286Y-52703362D01*
X5588048Y-52750981D01*
X5302333Y-52750981D01*
X5207095Y-52703362D01*
X5159476Y-52655743D01*
X6111857Y-51750981D02*
X6778524Y-51750981D01*
X6349952Y-52750981D01*
X5057876Y-49109381D02*
X5676924Y-49109381D01*
X5343590Y-49490333D01*
X5486448Y-49490333D01*
X5581686Y-49537952D01*
X5629305Y-49585571D01*
X5676924Y-49680810D01*
X5676924Y-49918905D01*
X5629305Y-50014143D01*
X5581686Y-50061762D01*
X5486448Y-50109381D01*
X5200733Y-50109381D01*
X5105495Y-50061762D01*
X5057876Y-50014143D01*
X6581686Y-49109381D02*
X6105495Y-49109381D01*
X6057876Y-49585571D01*
X6105495Y-49537952D01*
X6200733Y-49490333D01*
X6438829Y-49490333D01*
X6534067Y-49537952D01*
X6581686Y-49585571D01*
X6629305Y-49680810D01*
X6629305Y-49918905D01*
X6581686Y-50014143D01*
X6534067Y-50061762D01*
X6438829Y-50109381D01*
X6200733Y-50109381D01*
X6105495Y-50061762D01*
X6057876Y-50014143D01*
X5057876Y-46670981D02*
X5676924Y-46670981D01*
X5343590Y-47051933D01*
X5486448Y-47051933D01*
X5581686Y-47099552D01*
X5629305Y-47147171D01*
X5676924Y-47242410D01*
X5676924Y-47480505D01*
X5629305Y-47575743D01*
X5581686Y-47623362D01*
X5486448Y-47670981D01*
X5200733Y-47670981D01*
X5105495Y-47623362D01*
X5057876Y-47575743D01*
X6010257Y-46670981D02*
X6629305Y-46670981D01*
X6295971Y-47051933D01*
X6438829Y-47051933D01*
X6534067Y-47099552D01*
X6581686Y-47147171D01*
X6629305Y-47242410D01*
X6629305Y-47480505D01*
X6581686Y-47575743D01*
X6534067Y-47623362D01*
X6438829Y-47670981D01*
X6153114Y-47670981D01*
X6057876Y-47623362D01*
X6010257Y-47575743D01*
X5057876Y-43978581D02*
X5676924Y-43978581D01*
X5343590Y-44359533D01*
X5486448Y-44359533D01*
X5581686Y-44407152D01*
X5629305Y-44454771D01*
X5676924Y-44550010D01*
X5676924Y-44788105D01*
X5629305Y-44883343D01*
X5581686Y-44930962D01*
X5486448Y-44978581D01*
X5200733Y-44978581D01*
X5105495Y-44930962D01*
X5057876Y-44883343D01*
X6629305Y-44978581D02*
X6057876Y-44978581D01*
X6343590Y-44978581D02*
X6343590Y-43978581D01*
X6248352Y-44121438D01*
X6153114Y-44216676D01*
X6057876Y-44264295D01*
X5105495Y-41533819D02*
X5153114Y-41486200D01*
X5248352Y-41438581D01*
X5486448Y-41438581D01*
X5581686Y-41486200D01*
X5629305Y-41533819D01*
X5676924Y-41629057D01*
X5676924Y-41724295D01*
X5629305Y-41867152D01*
X5057876Y-42438581D01*
X5676924Y-42438581D01*
X6153114Y-42438581D02*
X6343590Y-42438581D01*
X6438829Y-42390962D01*
X6486448Y-42343343D01*
X6581686Y-42200486D01*
X6629305Y-42010010D01*
X6629305Y-41629057D01*
X6581686Y-41533819D01*
X6534067Y-41486200D01*
X6438829Y-41438581D01*
X6248352Y-41438581D01*
X6153114Y-41486200D01*
X6105495Y-41533819D01*
X6057876Y-41629057D01*
X6057876Y-41867152D01*
X6105495Y-41962390D01*
X6153114Y-42010010D01*
X6248352Y-42057629D01*
X6438829Y-42057629D01*
X6534067Y-42010010D01*
X6581686Y-41962390D01*
X6629305Y-41867152D01*
X5105495Y-39095419D02*
X5153114Y-39047800D01*
X5248352Y-39000181D01*
X5486448Y-39000181D01*
X5581686Y-39047800D01*
X5629305Y-39095419D01*
X5676924Y-39190657D01*
X5676924Y-39285895D01*
X5629305Y-39428752D01*
X5057876Y-40000181D01*
X5676924Y-40000181D01*
X6581686Y-39000181D02*
X6105495Y-39000181D01*
X6057876Y-39476371D01*
X6105495Y-39428752D01*
X6200733Y-39381133D01*
X6438829Y-39381133D01*
X6534067Y-39428752D01*
X6581686Y-39476371D01*
X6629305Y-39571610D01*
X6629305Y-39809705D01*
X6581686Y-39904943D01*
X6534067Y-39952562D01*
X6438829Y-40000181D01*
X6200733Y-40000181D01*
X6105495Y-39952562D01*
X6057876Y-39904943D01*
X5105495Y-36403019D02*
X5153114Y-36355400D01*
X5248352Y-36307781D01*
X5486448Y-36307781D01*
X5581686Y-36355400D01*
X5629305Y-36403019D01*
X5676924Y-36498257D01*
X5676924Y-36593495D01*
X5629305Y-36736352D01*
X5057876Y-37307781D01*
X5676924Y-37307781D01*
X6010257Y-36307781D02*
X6629305Y-36307781D01*
X6295971Y-36688733D01*
X6438829Y-36688733D01*
X6534067Y-36736352D01*
X6581686Y-36783971D01*
X6629305Y-36879210D01*
X6629305Y-37117305D01*
X6581686Y-37212543D01*
X6534067Y-37260162D01*
X6438829Y-37307781D01*
X6153114Y-37307781D01*
X6057876Y-37260162D01*
X6010257Y-37212543D01*
X5359495Y-33964619D02*
X5407114Y-33917000D01*
X5502352Y-33869381D01*
X5740448Y-33869381D01*
X5835686Y-33917000D01*
X5883305Y-33964619D01*
X5930924Y-34059857D01*
X5930924Y-34155095D01*
X5883305Y-34297952D01*
X5311876Y-34869381D01*
X5930924Y-34869381D01*
X6883305Y-34869381D02*
X6311876Y-34869381D01*
X6597590Y-34869381D02*
X6597590Y-33869381D01*
X6502352Y-34012238D01*
X6407114Y-34107476D01*
X6311876Y-34155095D01*
X5930924Y-32329381D02*
X5359495Y-32329381D01*
X5645209Y-32329381D02*
X5645209Y-31329381D01*
X5549971Y-31472238D01*
X5454733Y-31567476D01*
X5359495Y-31615095D01*
X6407114Y-32329381D02*
X6597590Y-32329381D01*
X6692829Y-32281762D01*
X6740448Y-32234143D01*
X6835686Y-32091286D01*
X6883305Y-31900810D01*
X6883305Y-31519857D01*
X6835686Y-31424619D01*
X6788067Y-31377000D01*
X6692829Y-31329381D01*
X6502352Y-31329381D01*
X6407114Y-31377000D01*
X6359495Y-31424619D01*
X6311876Y-31519857D01*
X6311876Y-31757952D01*
X6359495Y-31853190D01*
X6407114Y-31900810D01*
X6502352Y-31948429D01*
X6692829Y-31948429D01*
X6788067Y-31900810D01*
X6835686Y-31853190D01*
X6883305Y-31757952D01*
X5778524Y-29890981D02*
X5207095Y-29890981D01*
X5492809Y-29890981D02*
X5492809Y-28890981D01*
X5397571Y-29033838D01*
X5302333Y-29129076D01*
X5207095Y-29176695D01*
X6111857Y-28890981D02*
X6778524Y-28890981D01*
X6349952Y-29890981D01*
X5778524Y-27300181D02*
X5207095Y-27300181D01*
X5492809Y-27300181D02*
X5492809Y-26300181D01*
X5397571Y-26443038D01*
X5302333Y-26538276D01*
X5207095Y-26585895D01*
X6683286Y-26300181D02*
X6207095Y-26300181D01*
X6159476Y-26776371D01*
X6207095Y-26728752D01*
X6302333Y-26681133D01*
X6540429Y-26681133D01*
X6635667Y-26728752D01*
X6683286Y-26776371D01*
X6730905Y-26871610D01*
X6730905Y-27109705D01*
X6683286Y-27204943D01*
X6635667Y-27252562D01*
X6540429Y-27300181D01*
X6302333Y-27300181D01*
X6207095Y-27252562D01*
X6159476Y-27204943D01*
X5676924Y-24709381D02*
X5105495Y-24709381D01*
X5391209Y-24709381D02*
X5391209Y-23709381D01*
X5295971Y-23852238D01*
X5200733Y-23947476D01*
X5105495Y-23995095D01*
X6010257Y-23709381D02*
X6629305Y-23709381D01*
X6295971Y-24090333D01*
X6438829Y-24090333D01*
X6534067Y-24137952D01*
X6581686Y-24185571D01*
X6629305Y-24280810D01*
X6629305Y-24518905D01*
X6581686Y-24614143D01*
X6534067Y-24661762D01*
X6438829Y-24709381D01*
X6153114Y-24709381D01*
X6057876Y-24661762D01*
X6010257Y-24614143D01*
X5778524Y-22169381D02*
X5207095Y-22169381D01*
X5492809Y-22169381D02*
X5492809Y-21169381D01*
X5397571Y-21312238D01*
X5302333Y-21407476D01*
X5207095Y-21455095D01*
X6730905Y-22169381D02*
X6159476Y-22169381D01*
X6445190Y-22169381D02*
X6445190Y-21169381D01*
X6349952Y-21312238D01*
X6254714Y-21407476D01*
X6159476Y-21455095D01*
X6286524Y-19578581D02*
X6477000Y-19578581D01*
X6572239Y-19530962D01*
X6619858Y-19483343D01*
X6715096Y-19340486D01*
X6762715Y-19150010D01*
X6762715Y-18769057D01*
X6715096Y-18673819D01*
X6667477Y-18626200D01*
X6572239Y-18578581D01*
X6381762Y-18578581D01*
X6286524Y-18626200D01*
X6238905Y-18673819D01*
X6191286Y-18769057D01*
X6191286Y-19007152D01*
X6238905Y-19102390D01*
X6286524Y-19150010D01*
X6381762Y-19197629D01*
X6572239Y-19197629D01*
X6667477Y-19150010D01*
X6715096Y-19102390D01*
X6762715Y-19007152D01*
X6143667Y-16241781D02*
X6810334Y-16241781D01*
X6381762Y-17241781D01*
X6715096Y-13650981D02*
X6238905Y-13650981D01*
X6191286Y-14127171D01*
X6238905Y-14079552D01*
X6334143Y-14031933D01*
X6572239Y-14031933D01*
X6667477Y-14079552D01*
X6715096Y-14127171D01*
X6762715Y-14222410D01*
X6762715Y-14460505D01*
X6715096Y-14555743D01*
X6667477Y-14603362D01*
X6572239Y-14650981D01*
X6334143Y-14650981D01*
X6238905Y-14603362D01*
X6191286Y-14555743D01*
X6042067Y-11110981D02*
X6661115Y-11110981D01*
X6327781Y-11491933D01*
X6470639Y-11491933D01*
X6565877Y-11539552D01*
X6613496Y-11587171D01*
X6661115Y-11682410D01*
X6661115Y-11920505D01*
X6613496Y-12015743D01*
X6565877Y-12063362D01*
X6470639Y-12110981D01*
X6184924Y-12110981D01*
X6089686Y-12063362D01*
X6042067Y-12015743D01*
X6762715Y-9520181D02*
X6191286Y-9520181D01*
X6477000Y-9520181D02*
X6477000Y-8520181D01*
X6381762Y-8663038D01*
X6286524Y-8758276D01*
X6191286Y-8805895D01*
X6883400Y-40513000D02*
X12014200Y-40513000D01*
X40005000Y-1549400D02*
X40005000Y-6578600D01*
X42697400Y-1447800D02*
X42697400Y-6578600D01*
D12*
X57900000Y-1460000D02*
X7100000Y-1460000D01*
X9640000Y-6540000D02*
X57900000Y-6540000D01*
X57900000Y-1460000D02*
X57900000Y-6540000D01*
X7100000Y-1460000D02*
X7100000Y-4000000D01*
X6820000Y-5270000D02*
X6820000Y-6820000D01*
X7100000Y-4000000D02*
X9640000Y-4000000D01*
X9640000Y-4000000D02*
X9640000Y-6540000D01*
X6820000Y-6820000D02*
X8370000Y-6820000D01*
D13*
X6814200Y-10287000D02*
X6814200Y-56127000D01*
X6814200Y-56127000D02*
X12134200Y-56127000D01*
X12134200Y-56127000D02*
X12134200Y-7627000D01*
X12134200Y-7627000D02*
X9474200Y-7627000D01*
X9474200Y-7627000D02*
X9474200Y-10287000D01*
X9474200Y-10287000D02*
X6814200Y-10287000D01*
X6814200Y-9017000D02*
X6814200Y-7627000D01*
X6814200Y-7627000D02*
X8204200Y-7627000D01*
X60731400Y-12642200D02*
X60851400Y-12642200D01*
X60851400Y-12642200D02*
X60851400Y-7322200D01*
X60851400Y-7322200D02*
X58071400Y-7322200D01*
X58071400Y-7322200D02*
X58071400Y-9982200D01*
X58071400Y-9982200D02*
X60731400Y-9982200D01*
X60731400Y-9982200D02*
X60731400Y-12642200D01*
X59461400Y-12642200D02*
X58071400Y-12642200D01*
X58071400Y-12642200D02*
X58071400Y-11252200D01*
X25457800Y-43510200D02*
X25457800Y-56330200D01*
X25457800Y-56330200D02*
X30777800Y-56330200D01*
X30777800Y-56330200D02*
X30777800Y-40850200D01*
X30777800Y-40850200D02*
X28117800Y-40850200D01*
X28117800Y-40850200D02*
X28117800Y-43510200D01*
X28117800Y-43510200D02*
X25457800Y-43510200D01*
X25457800Y-42240200D02*
X25457800Y-40850200D01*
X25457800Y-40850200D02*
X26847800Y-40850200D01*
X30741000Y-43510200D02*
X30741000Y-56330200D01*
X30741000Y-56330200D02*
X36061000Y-56330200D01*
X36061000Y-56330200D02*
X36061000Y-40850200D01*
X36061000Y-40850200D02*
X33401000Y-40850200D01*
X33401000Y-40850200D02*
X33401000Y-43510200D01*
X33401000Y-43510200D02*
X30741000Y-43510200D01*
X30741000Y-42240200D02*
X30741000Y-40850200D01*
X30741000Y-40850200D02*
X32131000Y-40850200D01*
X36125800Y-43510200D02*
X36125800Y-56330200D01*
X36125800Y-56330200D02*
X41445800Y-56330200D01*
X41445800Y-56330200D02*
X41445800Y-40850200D01*
X41445800Y-40850200D02*
X38785800Y-40850200D01*
X38785800Y-40850200D02*
X38785800Y-43510200D01*
X38785800Y-43510200D02*
X36125800Y-43510200D01*
X36125800Y-42240200D02*
X36125800Y-40850200D01*
X36125800Y-40850200D02*
X37515800Y-40850200D01*
X59341400Y-25984200D02*
X59341400Y-48964200D01*
X59341400Y-48964200D02*
X64661400Y-48964200D01*
X64661400Y-48964200D02*
X64661400Y-23324200D01*
X64661400Y-23324200D02*
X62001400Y-23324200D01*
X62001400Y-23324200D02*
X62001400Y-25984200D01*
X62001400Y-25984200D02*
X59341400Y-25984200D01*
X59341400Y-24714200D02*
X59341400Y-23324200D01*
X59341400Y-23324200D02*
X60731400Y-23324200D01*
X54109000Y-25984200D02*
X54109000Y-48964200D01*
X54109000Y-48964200D02*
X59429000Y-48964200D01*
X59429000Y-48964200D02*
X59429000Y-23324200D01*
X59429000Y-23324200D02*
X56769000Y-23324200D01*
X56769000Y-23324200D02*
X56769000Y-25984200D01*
X56769000Y-25984200D02*
X54109000Y-25984200D01*
X54109000Y-24714200D02*
X54109000Y-23324200D01*
X54109000Y-23324200D02*
X55499000Y-23324200D01*
X48876600Y-25984200D02*
X48876600Y-48964200D01*
X48876600Y-48964200D02*
X54196600Y-48964200D01*
X54196600Y-48964200D02*
X54196600Y-23324200D01*
X54196600Y-23324200D02*
X51536600Y-23324200D01*
X51536600Y-23324200D02*
X51536600Y-25984200D01*
X51536600Y-25984200D02*
X48876600Y-25984200D01*
X48876600Y-24714200D02*
X48876600Y-23324200D01*
X48876600Y-23324200D02*
X50266600Y-23324200D01*
X57023000Y-16858600D02*
X64763000Y-16858600D01*
X64763000Y-16858600D02*
X64763000Y-14078600D01*
X64763000Y-14078600D02*
X57023000Y-14078600D01*
X57023000Y-14078600D02*
X57023000Y-16858600D01*
X55753000Y-16858600D02*
X54363000Y-16858600D01*
X54363000Y-16858600D02*
X54363000Y-15468600D01*
X19659600Y-52381800D02*
X15729600Y-52381800D01*
X15729600Y-52381800D02*
X15729600Y-55161800D01*
X15729600Y-55161800D02*
X19659600Y-55161800D01*
X19659600Y-55161800D02*
X19659600Y-52381800D01*
X20294600Y-52381800D02*
X21049600Y-52381800D01*
X21049600Y-52381800D02*
X21049600Y-53771800D01*
D10*
X8370000Y-3543600D02*
X8370000Y-3543600D01*
X8370000Y-1916400D02*
X8370000Y-1916400D01*
X8370000Y-3543600D02*
G75*
G03X8370000Y-1916400I0J813600D01*
G01*
X8370000Y-1916400D02*
G75*
G03X8370000Y-3543600I0J-813600D01*
G01*
X10910000Y-6083600D02*
X10910000Y-6083600D01*
X10910000Y-4456400D02*
X10910000Y-4456400D01*
X10910000Y-6083600D02*
G75*
G03X10910000Y-4456400I0J813600D01*
G01*
X10910000Y-4456400D02*
G75*
G03X10910000Y-6083600I0J-813600D01*
G01*
X10910000Y-3543600D02*
X10910000Y-3543600D01*
X10910000Y-1916400D02*
X10910000Y-1916400D01*
X10910000Y-3543600D02*
G75*
G03X10910000Y-1916400I0J813600D01*
G01*
X10910000Y-1916400D02*
G75*
G03X10910000Y-3543600I0J-813600D01*
G01*
X13450000Y-6083600D02*
X13450000Y-6083600D01*
X13450000Y-4456400D02*
X13450000Y-4456400D01*
X13450000Y-6083600D02*
G75*
G03X13450000Y-4456400I0J813600D01*
G01*
X13450000Y-4456400D02*
G75*
G03X13450000Y-6083600I0J-813600D01*
G01*
X13450000Y-3543600D02*
X13450000Y-3543600D01*
X13450000Y-1916400D02*
X13450000Y-1916400D01*
X13450000Y-3543600D02*
G75*
G03X13450000Y-1916400I0J813600D01*
G01*
X13450000Y-1916400D02*
G75*
G03X13450000Y-3543600I0J-813600D01*
G01*
X15990000Y-6083600D02*
X15990000Y-6083600D01*
X15990000Y-4456400D02*
X15990000Y-4456400D01*
X15990000Y-6083600D02*
G75*
G03X15990000Y-4456400I0J813600D01*
G01*
X15990000Y-4456400D02*
G75*
G03X15990000Y-6083600I0J-813600D01*
G01*
X15990000Y-3543600D02*
X15990000Y-3543600D01*
X15990000Y-1916400D02*
X15990000Y-1916400D01*
X15990000Y-3543600D02*
G75*
G03X15990000Y-1916400I0J813600D01*
G01*
X15990000Y-1916400D02*
G75*
G03X15990000Y-3543600I0J-813600D01*
G01*
X18530000Y-6083600D02*
X18530000Y-6083600D01*
X18530000Y-4456400D02*
X18530000Y-4456400D01*
X18530000Y-6083600D02*
G75*
G03X18530000Y-4456400I0J813600D01*
G01*
X18530000Y-4456400D02*
G75*
G03X18530000Y-6083600I0J-813600D01*
G01*
X18530000Y-3543600D02*
X18530000Y-3543600D01*
X18530000Y-1916400D02*
X18530000Y-1916400D01*
X18530000Y-3543600D02*
G75*
G03X18530000Y-1916400I0J813600D01*
G01*
X18530000Y-1916400D02*
G75*
G03X18530000Y-3543600I0J-813600D01*
G01*
X21070000Y-6083600D02*
X21070000Y-6083600D01*
X21070000Y-4456400D02*
X21070000Y-4456400D01*
X21070000Y-6083600D02*
G75*
G03X21070000Y-4456400I0J813600D01*
G01*
X21070000Y-4456400D02*
G75*
G03X21070000Y-6083600I0J-813600D01*
G01*
X21070000Y-3543600D02*
X21070000Y-3543600D01*
X21070000Y-1916400D02*
X21070000Y-1916400D01*
X21070000Y-3543600D02*
G75*
G03X21070000Y-1916400I0J813600D01*
G01*
X21070000Y-1916400D02*
G75*
G03X21070000Y-3543600I0J-813600D01*
G01*
X23610000Y-6083600D02*
X23610000Y-6083600D01*
X23610000Y-4456400D02*
X23610000Y-4456400D01*
X23610000Y-6083600D02*
G75*
G03X23610000Y-4456400I0J813600D01*
G01*
X23610000Y-4456400D02*
G75*
G03X23610000Y-6083600I0J-813600D01*
G01*
X23610000Y-3543600D02*
X23610000Y-3543600D01*
X23610000Y-1916400D02*
X23610000Y-1916400D01*
X23610000Y-3543600D02*
G75*
G03X23610000Y-1916400I0J813600D01*
G01*
X23610000Y-1916400D02*
G75*
G03X23610000Y-3543600I0J-813600D01*
G01*
X26150000Y-6083600D02*
X26150000Y-6083600D01*
X26150000Y-4456400D02*
X26150000Y-4456400D01*
X26150000Y-6083600D02*
G75*
G03X26150000Y-4456400I0J813600D01*
G01*
X26150000Y-4456400D02*
G75*
G03X26150000Y-6083600I0J-813600D01*
G01*
X26150000Y-3543600D02*
X26150000Y-3543600D01*
X26150000Y-1916400D02*
X26150000Y-1916400D01*
X26150000Y-3543600D02*
G75*
G03X26150000Y-1916400I0J813600D01*
G01*
X26150000Y-1916400D02*
G75*
G03X26150000Y-3543600I0J-813600D01*
G01*
X28690000Y-6083600D02*
X28690000Y-6083600D01*
X28690000Y-4456400D02*
X28690000Y-4456400D01*
X28690000Y-6083600D02*
G75*
G03X28690000Y-4456400I0J813600D01*
G01*
X28690000Y-4456400D02*
G75*
G03X28690000Y-6083600I0J-813600D01*
G01*
X28690000Y-3543600D02*
X28690000Y-3543600D01*
X28690000Y-1916400D02*
X28690000Y-1916400D01*
X28690000Y-3543600D02*
G75*
G03X28690000Y-1916400I0J813600D01*
G01*
X28690000Y-1916400D02*
G75*
G03X28690000Y-3543600I0J-813600D01*
G01*
X31230000Y-6083600D02*
X31230000Y-6083600D01*
X31230000Y-4456400D02*
X31230000Y-4456400D01*
X31230000Y-6083600D02*
G75*
G03X31230000Y-4456400I0J813600D01*
G01*
X31230000Y-4456400D02*
G75*
G03X31230000Y-6083600I0J-813600D01*
G01*
X31230000Y-3543600D02*
X31230000Y-3543600D01*
X31230000Y-1916400D02*
X31230000Y-1916400D01*
X31230000Y-3543600D02*
G75*
G03X31230000Y-1916400I0J813600D01*
G01*
X31230000Y-1916400D02*
G75*
G03X31230000Y-3543600I0J-813600D01*
G01*
X33770000Y-6083600D02*
X33770000Y-6083600D01*
X33770000Y-4456400D02*
X33770000Y-4456400D01*
X33770000Y-6083600D02*
G75*
G03X33770000Y-4456400I0J813600D01*
G01*
X33770000Y-4456400D02*
G75*
G03X33770000Y-6083600I0J-813600D01*
G01*
X33770000Y-3543600D02*
X33770000Y-3543600D01*
X33770000Y-1916400D02*
X33770000Y-1916400D01*
X33770000Y-3543600D02*
G75*
G03X33770000Y-1916400I0J813600D01*
G01*
X33770000Y-1916400D02*
G75*
G03X33770000Y-3543600I0J-813600D01*
G01*
X36310000Y-6083600D02*
X36310000Y-6083600D01*
X36310000Y-4456400D02*
X36310000Y-4456400D01*
X36310000Y-6083600D02*
G75*
G03X36310000Y-4456400I0J813600D01*
G01*
X36310000Y-4456400D02*
G75*
G03X36310000Y-6083600I0J-813600D01*
G01*
X36310000Y-3543600D02*
X36310000Y-3543600D01*
X36310000Y-1916400D02*
X36310000Y-1916400D01*
X36310000Y-3543600D02*
G75*
G03X36310000Y-1916400I0J813600D01*
G01*
X36310000Y-1916400D02*
G75*
G03X36310000Y-3543600I0J-813600D01*
G01*
X38850000Y-6083600D02*
X38850000Y-6083600D01*
X38850000Y-4456400D02*
X38850000Y-4456400D01*
X38850000Y-6083600D02*
G75*
G03X38850000Y-4456400I0J813600D01*
G01*
X38850000Y-4456400D02*
G75*
G03X38850000Y-6083600I0J-813600D01*
G01*
X38850000Y-3543600D02*
X38850000Y-3543600D01*
X38850000Y-1916400D02*
X38850000Y-1916400D01*
X38850000Y-3543600D02*
G75*
G03X38850000Y-1916400I0J813600D01*
G01*
X38850000Y-1916400D02*
G75*
G03X38850000Y-3543600I0J-813600D01*
G01*
X41390000Y-6083600D02*
X41390000Y-6083600D01*
X41390000Y-4456400D02*
X41390000Y-4456400D01*
X41390000Y-6083600D02*
G75*
G03X41390000Y-4456400I0J813600D01*
G01*
X41390000Y-4456400D02*
G75*
G03X41390000Y-6083600I0J-813600D01*
G01*
X41390000Y-3543600D02*
X41390000Y-3543600D01*
X41390000Y-1916400D02*
X41390000Y-1916400D01*
X41390000Y-3543600D02*
G75*
G03X41390000Y-1916400I0J813600D01*
G01*
X41390000Y-1916400D02*
G75*
G03X41390000Y-3543600I0J-813600D01*
G01*
X43930000Y-6083600D02*
X43930000Y-6083600D01*
X43930000Y-4456400D02*
X43930000Y-4456400D01*
X43930000Y-6083600D02*
G75*
G03X43930000Y-4456400I0J813600D01*
G01*
X43930000Y-4456400D02*
G75*
G03X43930000Y-6083600I0J-813600D01*
G01*
X43930000Y-3543600D02*
X43930000Y-3543600D01*
X43930000Y-1916400D02*
X43930000Y-1916400D01*
X43930000Y-3543600D02*
G75*
G03X43930000Y-1916400I0J813600D01*
G01*
X43930000Y-1916400D02*
G75*
G03X43930000Y-3543600I0J-813600D01*
G01*
X46470000Y-6083600D02*
X46470000Y-6083600D01*
X46470000Y-4456400D02*
X46470000Y-4456400D01*
X46470000Y-6083600D02*
G75*
G03X46470000Y-4456400I0J813600D01*
G01*
X46470000Y-4456400D02*
G75*
G03X46470000Y-6083600I0J-813600D01*
G01*
X46470000Y-3543600D02*
X46470000Y-3543600D01*
X46470000Y-1916400D02*
X46470000Y-1916400D01*
X46470000Y-3543600D02*
G75*
G03X46470000Y-1916400I0J813600D01*
G01*
X46470000Y-1916400D02*
G75*
G03X46470000Y-3543600I0J-813600D01*
G01*
X49010000Y-6083600D02*
X49010000Y-6083600D01*
X49010000Y-4456400D02*
X49010000Y-4456400D01*
X49010000Y-6083600D02*
G75*
G03X49010000Y-4456400I0J813600D01*
G01*
X49010000Y-4456400D02*
G75*
G03X49010000Y-6083600I0J-813600D01*
G01*
X49010000Y-3543600D02*
X49010000Y-3543600D01*
X49010000Y-1916400D02*
X49010000Y-1916400D01*
X49010000Y-3543600D02*
G75*
G03X49010000Y-1916400I0J813600D01*
G01*
X49010000Y-1916400D02*
G75*
G03X49010000Y-3543600I0J-813600D01*
G01*
X51550000Y-6083600D02*
X51550000Y-6083600D01*
X51550000Y-4456400D02*
X51550000Y-4456400D01*
X51550000Y-6083600D02*
G75*
G03X51550000Y-4456400I0J813600D01*
G01*
X51550000Y-4456400D02*
G75*
G03X51550000Y-6083600I0J-813600D01*
G01*
X51550000Y-3543600D02*
X51550000Y-3543600D01*
X51550000Y-1916400D02*
X51550000Y-1916400D01*
X51550000Y-3543600D02*
G75*
G03X51550000Y-1916400I0J813600D01*
G01*
X51550000Y-1916400D02*
G75*
G03X51550000Y-3543600I0J-813600D01*
G01*
X54090000Y-6083600D02*
X54090000Y-6083600D01*
X54090000Y-4456400D02*
X54090000Y-4456400D01*
X54090000Y-6083600D02*
G75*
G03X54090000Y-4456400I0J813600D01*
G01*
X54090000Y-4456400D02*
G75*
G03X54090000Y-6083600I0J-813600D01*
G01*
X54090000Y-3543600D02*
X54090000Y-3543600D01*
X54090000Y-1916400D02*
X54090000Y-1916400D01*
X54090000Y-3543600D02*
G75*
G03X54090000Y-1916400I0J813600D01*
G01*
X54090000Y-1916400D02*
G75*
G03X54090000Y-3543600I0J-813600D01*
G01*
X56630000Y-6083600D02*
X56630000Y-6083600D01*
X56630000Y-4456400D02*
X56630000Y-4456400D01*
X56630000Y-6083600D02*
G75*
G03X56630000Y-4456400I0J813600D01*
G01*
X56630000Y-4456400D02*
G75*
G03X56630000Y-6083600I0J-813600D01*
G01*
X56630000Y-3543600D02*
X56630000Y-3543600D01*
X56630000Y-1916400D02*
X56630000Y-1916400D01*
X56630000Y-3543600D02*
G75*
G03X56630000Y-1916400I0J813600D01*
G01*
X56630000Y-1916400D02*
G75*
G03X56630000Y-3543600I0J-813600D01*
G01*
D12*
X7822381Y-8524333D02*
X8536667Y-8524333D01*
X8679524Y-8571953D01*
X8774762Y-8667191D01*
X8822381Y-8810048D01*
X8822381Y-8905286D01*
X7917619Y-8095762D02*
X7870000Y-8048143D01*
X7822381Y-7952905D01*
X7822381Y-7714809D01*
X7870000Y-7619571D01*
X7917619Y-7571952D01*
X8012857Y-7524333D01*
X8108095Y-7524333D01*
X8250952Y-7571952D01*
X8822381Y-8143381D01*
X8822381Y-7524333D01*
X9140867Y-6079381D02*
X9140867Y-6793667D01*
X9093247Y-6936524D01*
X8998009Y-7031762D01*
X8855152Y-7079381D01*
X8759914Y-7079381D01*
X10140867Y-7079381D02*
X9569438Y-7079381D01*
X9855152Y-7079381D02*
X9855152Y-6079381D01*
X9759914Y-6222238D01*
X9664676Y-6317476D01*
X9569438Y-6365095D01*
X56523781Y-10815533D02*
X57238067Y-10815533D01*
X57380924Y-10863153D01*
X57476162Y-10958391D01*
X57523781Y-11101248D01*
X57523781Y-11196486D01*
X57523781Y-10339343D02*
X56523781Y-10339343D01*
X56523781Y-9958390D01*
X56571400Y-9863152D01*
X56619019Y-9815533D01*
X56714257Y-9767914D01*
X56857114Y-9767914D01*
X56952352Y-9815533D01*
X56999971Y-9863152D01*
X57047590Y-9958390D01*
X57047590Y-10339343D01*
X57523781Y-8815533D02*
X57523781Y-9386962D01*
X57523781Y-9101248D02*
X56523781Y-9101248D01*
X56666638Y-9196486D01*
X56761876Y-9291724D01*
X56809495Y-9386962D01*
X27784467Y-39302581D02*
X27784467Y-40016867D01*
X27736847Y-40159724D01*
X27641609Y-40254962D01*
X27498752Y-40302581D01*
X27403514Y-40302581D01*
X28165419Y-39302581D02*
X28784467Y-39302581D01*
X28451133Y-39683533D01*
X28593991Y-39683533D01*
X28689229Y-39731152D01*
X28736848Y-39778771D01*
X28784467Y-39874010D01*
X28784467Y-40112105D01*
X28736848Y-40207343D01*
X28689229Y-40254962D01*
X28593991Y-40302581D01*
X28308276Y-40302581D01*
X28213038Y-40254962D01*
X28165419Y-40207343D01*
X33067667Y-39302581D02*
X33067667Y-40016867D01*
X33020047Y-40159724D01*
X32924809Y-40254962D01*
X32781952Y-40302581D01*
X32686714Y-40302581D01*
X33972429Y-39635914D02*
X33972429Y-40302581D01*
X33734333Y-39254962D02*
X33496238Y-39969248D01*
X34115286Y-39969248D01*
X38452467Y-39302581D02*
X38452467Y-40016867D01*
X38404847Y-40159724D01*
X38309609Y-40254962D01*
X38166752Y-40302581D01*
X38071514Y-40302581D01*
X39404848Y-39302581D02*
X38928657Y-39302581D01*
X38881038Y-39778771D01*
X38928657Y-39731152D01*
X39023895Y-39683533D01*
X39261991Y-39683533D01*
X39357229Y-39731152D01*
X39404848Y-39778771D01*
X39452467Y-39874010D01*
X39452467Y-40112105D01*
X39404848Y-40207343D01*
X39357229Y-40254962D01*
X39261991Y-40302581D01*
X39023895Y-40302581D01*
X38928657Y-40254962D01*
X38881038Y-40207343D01*
X61668067Y-21776581D02*
X61668067Y-22490867D01*
X61620447Y-22633724D01*
X61525209Y-22728962D01*
X61382352Y-22776581D01*
X61287114Y-22776581D01*
X62572829Y-21776581D02*
X62382352Y-21776581D01*
X62287114Y-21824200D01*
X62239495Y-21871819D01*
X62144257Y-22014676D01*
X62096638Y-22205152D01*
X62096638Y-22586105D01*
X62144257Y-22681343D01*
X62191876Y-22728962D01*
X62287114Y-22776581D01*
X62477591Y-22776581D01*
X62572829Y-22728962D01*
X62620448Y-22681343D01*
X62668067Y-22586105D01*
X62668067Y-22348010D01*
X62620448Y-22252771D01*
X62572829Y-22205152D01*
X62477591Y-22157533D01*
X62287114Y-22157533D01*
X62191876Y-22205152D01*
X62144257Y-22252771D01*
X62096638Y-22348010D01*
X56435667Y-21776581D02*
X56435667Y-22490867D01*
X56388047Y-22633724D01*
X56292809Y-22728962D01*
X56149952Y-22776581D01*
X56054714Y-22776581D01*
X56816619Y-21776581D02*
X57483286Y-21776581D01*
X57054714Y-22776581D01*
X51203267Y-21776581D02*
X51203267Y-22490867D01*
X51155647Y-22633724D01*
X51060409Y-22728962D01*
X50917552Y-22776581D01*
X50822314Y-22776581D01*
X51822314Y-22205152D02*
X51727076Y-22157533D01*
X51679457Y-22109914D01*
X51631838Y-22014676D01*
X51631838Y-21967057D01*
X51679457Y-21871819D01*
X51727076Y-21824200D01*
X51822314Y-21776581D01*
X52012791Y-21776581D01*
X52108029Y-21824200D01*
X52155648Y-21871819D01*
X52203267Y-21967057D01*
X52203267Y-22014676D01*
X52155648Y-22109914D01*
X52108029Y-22157533D01*
X52012791Y-22205152D01*
X51822314Y-22205152D01*
X51727076Y-22252771D01*
X51679457Y-22300390D01*
X51631838Y-22395629D01*
X51631838Y-22586105D01*
X51679457Y-22681343D01*
X51727076Y-22728962D01*
X51822314Y-22776581D01*
X52012791Y-22776581D01*
X52108029Y-22728962D01*
X52155648Y-22681343D01*
X52203267Y-22586105D01*
X52203267Y-22395629D01*
X52155648Y-22300390D01*
X52108029Y-22252771D01*
X52012791Y-22205152D01*
X52815381Y-15801933D02*
X53529667Y-15801933D01*
X53672524Y-15849553D01*
X53767762Y-15944791D01*
X53815381Y-16087648D01*
X53815381Y-16182886D01*
X53815381Y-15278124D02*
X53815381Y-15087648D01*
X53767762Y-14992409D01*
X53720143Y-14944790D01*
X53577286Y-14849552D01*
X53386810Y-14801933D01*
X53005857Y-14801933D01*
X52910619Y-14849552D01*
X52863000Y-14897171D01*
X52815381Y-14992409D01*
X52815381Y-15182886D01*
X52863000Y-15278124D01*
X52910619Y-15325743D01*
X53005857Y-15373362D01*
X53243952Y-15373362D01*
X53339190Y-15325743D01*
X53386810Y-15278124D01*
X53434429Y-15182886D01*
X53434429Y-14992409D01*
X53386810Y-14897171D01*
X53339190Y-14849552D01*
X53243952Y-14801933D01*
X21501981Y-54581323D02*
X22216267Y-54581323D01*
X22359124Y-54628943D01*
X22454362Y-54724181D01*
X22501981Y-54867038D01*
X22501981Y-54962276D01*
X22501981Y-53581323D02*
X22501981Y-54152752D01*
X22501981Y-53867038D02*
X21501981Y-53867038D01*
X21644838Y-53962276D01*
X21740076Y-54057514D01*
X21787695Y-54152752D01*
X21501981Y-52962276D02*
X21501981Y-52867037D01*
X21549600Y-52771799D01*
X21597219Y-52724180D01*
X21692457Y-52676561D01*
X21882933Y-52628942D01*
X22121029Y-52628942D01*
X22311505Y-52676561D01*
X22406743Y-52724180D01*
X22454362Y-52771799D01*
X22501981Y-52867037D01*
X22501981Y-52962276D01*
X22454362Y-53057514D01*
X22406743Y-53105133D01*
X22311505Y-53152752D01*
X22121029Y-53200371D01*
X21882933Y-53200371D01*
X21692457Y-53152752D01*
X21597219Y-53105133D01*
X21549600Y-53057514D01*
X21501981Y-52962276D01*
M02*
