M48
;DRILL file {KiCad 4.0.6} date Friday, 11 August 2017 'AMt' 02:59:47
;FORMAT={-:-/ absolute / metric / decimal}
FMAT,2
METRIC,TZ
T1C0.500
T2C1.000
T3C1.016
T4C2.750
%
G90
G05
M71
T1
X47.473Y-20.803
X50.317Y-16.231
T2
X8.204Y-9.017
X8.204Y-11.557
X8.204Y-14.097
X8.204Y-16.637
X8.204Y-19.177
X8.204Y-21.717
X8.204Y-24.257
X8.204Y-26.797
X8.204Y-29.337
X8.204Y-31.877
X8.204Y-34.417
X8.204Y-36.957
X8.204Y-39.497
X8.204Y-42.037
X8.204Y-44.577
X8.204Y-47.117
X8.204Y-49.657
X8.204Y-52.197
X8.204Y-54.737
X10.744Y-9.017
X10.744Y-11.557
X10.744Y-14.097
X10.744Y-16.637
X10.744Y-19.177
X10.744Y-21.717
X10.744Y-24.257
X10.744Y-26.797
X10.744Y-29.337
X10.744Y-31.877
X10.744Y-34.417
X10.744Y-36.957
X10.744Y-39.497
X10.744Y-42.037
X10.744Y-44.577
X10.744Y-47.117
X10.744Y-49.657
X10.744Y-52.197
X10.744Y-54.737
X26.848Y-42.24
X26.848Y-44.78
X26.848Y-47.32
X26.848Y-49.86
X26.848Y-52.4
X26.848Y-54.94
X29.388Y-42.24
X29.388Y-44.78
X29.388Y-47.32
X29.388Y-49.86
X29.388Y-52.4
X29.388Y-54.94
X32.131Y-42.24
X32.131Y-44.78
X32.131Y-47.32
X32.131Y-49.86
X32.131Y-52.4
X32.131Y-54.94
X34.671Y-42.24
X34.671Y-44.78
X34.671Y-47.32
X34.671Y-49.86
X34.671Y-52.4
X34.671Y-54.94
X37.516Y-42.24
X37.516Y-44.78
X37.516Y-47.32
X37.516Y-49.86
X37.516Y-52.4
X37.516Y-54.94
X40.056Y-42.24
X40.056Y-44.78
X40.056Y-47.32
X40.056Y-49.86
X40.056Y-52.4
X40.056Y-54.94
X50.267Y-24.714
X50.267Y-27.254
X50.267Y-29.794
X50.267Y-32.334
X50.267Y-34.874
X50.267Y-37.414
X50.267Y-39.954
X50.267Y-42.494
X50.267Y-45.034
X50.267Y-47.574
X50.521Y-18.974
X52.807Y-24.714
X52.807Y-27.254
X52.807Y-29.794
X52.807Y-32.334
X52.807Y-34.874
X52.807Y-37.414
X52.807Y-39.954
X52.807Y-42.494
X52.807Y-45.034
X52.807Y-47.574
X53.061Y-18.974
X55.499Y-24.714
X55.499Y-27.254
X55.499Y-29.794
X55.499Y-32.334
X55.499Y-34.874
X55.499Y-37.414
X55.499Y-39.954
X55.499Y-42.494
X55.499Y-45.034
X55.499Y-47.574
X58.039Y-24.714
X58.039Y-27.254
X58.039Y-29.794
X58.039Y-32.334
X58.039Y-34.874
X58.039Y-37.414
X58.039Y-39.954
X58.039Y-42.494
X58.039Y-45.034
X58.039Y-47.574
X60.731Y-24.714
X60.731Y-27.254
X60.731Y-29.794
X60.731Y-32.334
X60.731Y-34.874
X60.731Y-37.414
X60.731Y-39.954
X60.731Y-42.494
X60.731Y-45.034
X60.731Y-47.574
X63.271Y-24.714
X63.271Y-27.254
X63.271Y-29.794
X63.271Y-32.334
X63.271Y-34.874
X63.271Y-37.414
X63.271Y-39.954
X63.271Y-42.494
X63.271Y-45.034
X63.271Y-47.574
T3
X8.37Y-2.73
X8.37Y-5.27
X10.91Y-2.73
X10.91Y-5.27
X13.45Y-2.73
X13.45Y-5.27
X15.99Y-2.73
X15.99Y-5.27
X18.53Y-2.73
X18.53Y-5.27
X21.07Y-2.73
X21.07Y-5.27
X23.61Y-2.73
X23.61Y-5.27
X26.15Y-2.73
X26.15Y-5.27
X28.69Y-2.73
X28.69Y-5.27
X31.23Y-2.73
X31.23Y-5.27
X33.77Y-2.73
X33.77Y-5.27
X36.31Y-2.73
X36.31Y-5.27
X38.85Y-2.73
X38.85Y-5.27
X41.39Y-2.73
X41.39Y-5.27
X43.93Y-2.73
X43.93Y-5.27
X46.47Y-2.73
X46.47Y-5.27
X49.01Y-2.73
X49.01Y-5.27
X51.55Y-2.73
X51.55Y-5.27
X54.09Y-2.73
X54.09Y-5.27
X56.63Y-2.73
X56.63Y-5.27
T4
X3.5Y-4.
X3.5Y-53.
X61.5Y-4.
X61.5Y-53.
T0
M30
