G04 #@! TF.FileFunction,Soldermask,Top*
%FSLAX46Y46*%
G04 Gerber Fmt 4.6, Leading zero omitted, Abs format (unit mm)*
G04 Created by KiCad (PCBNEW 4.0.6) date Monday, 14 August 2017 'PMt' 14:39:00*
%MOMM*%
%LPD*%
G01*
G04 APERTURE LIST*
%ADD10C,0.100000*%
%ADD11R,1.727200X1.727200*%
%ADD12O,1.727200X1.727200*%
%ADD13C,6.200000*%
%ADD14R,1.700000X1.700000*%
%ADD15O,1.700000X1.700000*%
G04 APERTURE END LIST*
D10*
D11*
X8370000Y-5270000D03*
D12*
X8370000Y-2730000D03*
X10910000Y-5270000D03*
X10910000Y-2730000D03*
X13450000Y-5270000D03*
X13450000Y-2730000D03*
X15990000Y-5270000D03*
X15990000Y-2730000D03*
X18530000Y-5270000D03*
X18530000Y-2730000D03*
X21070000Y-5270000D03*
X21070000Y-2730000D03*
X23610000Y-5270000D03*
X23610000Y-2730000D03*
X26150000Y-5270000D03*
X26150000Y-2730000D03*
X28690000Y-5270000D03*
X28690000Y-2730000D03*
X31230000Y-5270000D03*
X31230000Y-2730000D03*
X33770000Y-5270000D03*
X33770000Y-2730000D03*
X36310000Y-5270000D03*
X36310000Y-2730000D03*
X38850000Y-5270000D03*
X38850000Y-2730000D03*
X41390000Y-5270000D03*
X41390000Y-2730000D03*
X43930000Y-5270000D03*
X43930000Y-2730000D03*
X46470000Y-5270000D03*
X46470000Y-2730000D03*
X49010000Y-5270000D03*
X49010000Y-2730000D03*
X51550000Y-5270000D03*
X51550000Y-2730000D03*
X54090000Y-5270000D03*
X54090000Y-2730000D03*
X56630000Y-5270000D03*
X56630000Y-2730000D03*
D13*
X61500000Y-4000000D03*
X61500000Y-53000000D03*
X3500000Y-53000000D03*
X3500000Y-4000000D03*
D14*
X8204200Y-9017000D03*
D15*
X10744200Y-9017000D03*
X8204200Y-11557000D03*
X10744200Y-11557000D03*
X8204200Y-14097000D03*
X10744200Y-14097000D03*
X8204200Y-16637000D03*
X10744200Y-16637000D03*
X8204200Y-19177000D03*
X10744200Y-19177000D03*
X8204200Y-21717000D03*
X10744200Y-21717000D03*
X8204200Y-24257000D03*
X10744200Y-24257000D03*
X8204200Y-26797000D03*
X10744200Y-26797000D03*
X8204200Y-29337000D03*
X10744200Y-29337000D03*
X8204200Y-31877000D03*
X10744200Y-31877000D03*
X8204200Y-34417000D03*
X10744200Y-34417000D03*
X8204200Y-36957000D03*
X10744200Y-36957000D03*
X8204200Y-39497000D03*
X10744200Y-39497000D03*
X8204200Y-42037000D03*
X10744200Y-42037000D03*
X8204200Y-44577000D03*
X10744200Y-44577000D03*
X8204200Y-47117000D03*
X10744200Y-47117000D03*
X8204200Y-49657000D03*
X10744200Y-49657000D03*
X8204200Y-52197000D03*
X10744200Y-52197000D03*
X8204200Y-54737000D03*
X10744200Y-54737000D03*
D14*
X59461400Y-11252200D03*
D15*
X59461400Y-8712200D03*
D14*
X26847800Y-42240200D03*
D15*
X29387800Y-42240200D03*
X26847800Y-44780200D03*
X29387800Y-44780200D03*
X26847800Y-47320200D03*
X29387800Y-47320200D03*
X26847800Y-49860200D03*
X29387800Y-49860200D03*
X26847800Y-52400200D03*
X29387800Y-52400200D03*
X26847800Y-54940200D03*
X29387800Y-54940200D03*
D14*
X32131000Y-42240200D03*
D15*
X34671000Y-42240200D03*
X32131000Y-44780200D03*
X34671000Y-44780200D03*
X32131000Y-47320200D03*
X34671000Y-47320200D03*
X32131000Y-49860200D03*
X34671000Y-49860200D03*
X32131000Y-52400200D03*
X34671000Y-52400200D03*
X32131000Y-54940200D03*
X34671000Y-54940200D03*
D14*
X37515800Y-42240200D03*
D15*
X40055800Y-42240200D03*
X37515800Y-44780200D03*
X40055800Y-44780200D03*
X37515800Y-47320200D03*
X40055800Y-47320200D03*
X37515800Y-49860200D03*
X40055800Y-49860200D03*
X37515800Y-52400200D03*
X40055800Y-52400200D03*
X37515800Y-54940200D03*
X40055800Y-54940200D03*
D14*
X60731400Y-24714200D03*
D15*
X63271400Y-24714200D03*
X60731400Y-27254200D03*
X63271400Y-27254200D03*
X60731400Y-29794200D03*
X63271400Y-29794200D03*
X60731400Y-32334200D03*
X63271400Y-32334200D03*
X60731400Y-34874200D03*
X63271400Y-34874200D03*
X60731400Y-37414200D03*
X63271400Y-37414200D03*
X60731400Y-39954200D03*
X63271400Y-39954200D03*
X60731400Y-42494200D03*
X63271400Y-42494200D03*
X60731400Y-45034200D03*
X63271400Y-45034200D03*
X60731400Y-47574200D03*
X63271400Y-47574200D03*
D14*
X55499000Y-24714200D03*
D15*
X58039000Y-24714200D03*
X55499000Y-27254200D03*
X58039000Y-27254200D03*
X55499000Y-29794200D03*
X58039000Y-29794200D03*
X55499000Y-32334200D03*
X58039000Y-32334200D03*
X55499000Y-34874200D03*
X58039000Y-34874200D03*
X55499000Y-37414200D03*
X58039000Y-37414200D03*
X55499000Y-39954200D03*
X58039000Y-39954200D03*
X55499000Y-42494200D03*
X58039000Y-42494200D03*
X55499000Y-45034200D03*
X58039000Y-45034200D03*
X55499000Y-47574200D03*
X58039000Y-47574200D03*
D14*
X50266600Y-24714200D03*
D15*
X52806600Y-24714200D03*
X50266600Y-27254200D03*
X52806600Y-27254200D03*
X50266600Y-29794200D03*
X52806600Y-29794200D03*
X50266600Y-32334200D03*
X52806600Y-32334200D03*
X50266600Y-34874200D03*
X52806600Y-34874200D03*
X50266600Y-37414200D03*
X52806600Y-37414200D03*
X50266600Y-39954200D03*
X52806600Y-39954200D03*
X50266600Y-42494200D03*
X52806600Y-42494200D03*
X50266600Y-45034200D03*
X52806600Y-45034200D03*
X50266600Y-47574200D03*
X52806600Y-47574200D03*
D14*
X55753000Y-15468600D03*
D15*
X58293000Y-15468600D03*
X60833000Y-15468600D03*
X63373000Y-15468600D03*
M02*
