G04 #@! TF.FileFunction,Copper,L1,Top,Signal*
%FSLAX46Y46*%
G04 Gerber Fmt 4.6, Leading zero omitted, Abs format (unit mm)*
G04 Created by KiCad (PCBNEW 4.0.6) date Wednesday, 16 August 2017 'AMt' 01:40:11*
%MOMM*%
%LPD*%
G01*
G04 APERTURE LIST*
%ADD10C,0.100000*%
%ADD11R,1.727200X1.727200*%
%ADD12O,1.727200X1.727200*%
%ADD13R,1.700000X1.700000*%
%ADD14O,1.700000X1.700000*%
%ADD15R,1.000000X1.000000*%
%ADD16O,1.000000X1.000000*%
%ADD17C,0.250000*%
%ADD18C,0.400000*%
G04 APERTURE END LIST*
D10*
D11*
X8370000Y-5270000D03*
D12*
X8370000Y-2730000D03*
X10910000Y-5270000D03*
X10910000Y-2730000D03*
X13450000Y-5270000D03*
X13450000Y-2730000D03*
X15990000Y-5270000D03*
X15990000Y-2730000D03*
X18530000Y-5270000D03*
X18530000Y-2730000D03*
X21070000Y-5270000D03*
X21070000Y-2730000D03*
X23610000Y-5270000D03*
X23610000Y-2730000D03*
X26150000Y-5270000D03*
X26150000Y-2730000D03*
X28690000Y-5270000D03*
X28690000Y-2730000D03*
X31230000Y-5270000D03*
X31230000Y-2730000D03*
X33770000Y-5270000D03*
X33770000Y-2730000D03*
X36310000Y-5270000D03*
X36310000Y-2730000D03*
X38850000Y-5270000D03*
X38850000Y-2730000D03*
X41390000Y-5270000D03*
X41390000Y-2730000D03*
X43930000Y-5270000D03*
X43930000Y-2730000D03*
X46470000Y-5270000D03*
X46470000Y-2730000D03*
X49010000Y-5270000D03*
X49010000Y-2730000D03*
X51550000Y-5270000D03*
X51550000Y-2730000D03*
X54090000Y-5270000D03*
X54090000Y-2730000D03*
X56630000Y-5270000D03*
X56630000Y-2730000D03*
D13*
X8204200Y-9017000D03*
D14*
X10744200Y-9017000D03*
X8204200Y-11557000D03*
X10744200Y-11557000D03*
X8204200Y-14097000D03*
X10744200Y-14097000D03*
X8204200Y-16637000D03*
X10744200Y-16637000D03*
X8204200Y-19177000D03*
X10744200Y-19177000D03*
X8204200Y-21717000D03*
X10744200Y-21717000D03*
X8204200Y-24257000D03*
X10744200Y-24257000D03*
X8204200Y-26797000D03*
X10744200Y-26797000D03*
X8204200Y-29337000D03*
X10744200Y-29337000D03*
X8204200Y-31877000D03*
X10744200Y-31877000D03*
X8204200Y-34417000D03*
X10744200Y-34417000D03*
X8204200Y-36957000D03*
X10744200Y-36957000D03*
X8204200Y-39497000D03*
X10744200Y-39497000D03*
X8204200Y-42037000D03*
X10744200Y-42037000D03*
X8204200Y-44577000D03*
X10744200Y-44577000D03*
X8204200Y-47117000D03*
X10744200Y-47117000D03*
X8204200Y-49657000D03*
X10744200Y-49657000D03*
X8204200Y-52197000D03*
X10744200Y-52197000D03*
X8204200Y-54737000D03*
X10744200Y-54737000D03*
D13*
X59461400Y-11252200D03*
D14*
X59461400Y-8712200D03*
D13*
X26847800Y-42240200D03*
D14*
X29387800Y-42240200D03*
X26847800Y-44780200D03*
X29387800Y-44780200D03*
X26847800Y-47320200D03*
X29387800Y-47320200D03*
X26847800Y-49860200D03*
X29387800Y-49860200D03*
X26847800Y-52400200D03*
X29387800Y-52400200D03*
X26847800Y-54940200D03*
X29387800Y-54940200D03*
D13*
X32131000Y-42240200D03*
D14*
X34671000Y-42240200D03*
X32131000Y-44780200D03*
X34671000Y-44780200D03*
X32131000Y-47320200D03*
X34671000Y-47320200D03*
X32131000Y-49860200D03*
X34671000Y-49860200D03*
X32131000Y-52400200D03*
X34671000Y-52400200D03*
X32131000Y-54940200D03*
X34671000Y-54940200D03*
D13*
X37515800Y-42240200D03*
D14*
X40055800Y-42240200D03*
X37515800Y-44780200D03*
X40055800Y-44780200D03*
X37515800Y-47320200D03*
X40055800Y-47320200D03*
X37515800Y-49860200D03*
X40055800Y-49860200D03*
X37515800Y-52400200D03*
X40055800Y-52400200D03*
X37515800Y-54940200D03*
X40055800Y-54940200D03*
D13*
X60731400Y-24714200D03*
D14*
X63271400Y-24714200D03*
X60731400Y-27254200D03*
X63271400Y-27254200D03*
X60731400Y-29794200D03*
X63271400Y-29794200D03*
X60731400Y-32334200D03*
X63271400Y-32334200D03*
X60731400Y-34874200D03*
X63271400Y-34874200D03*
X60731400Y-37414200D03*
X63271400Y-37414200D03*
X60731400Y-39954200D03*
X63271400Y-39954200D03*
X60731400Y-42494200D03*
X63271400Y-42494200D03*
X60731400Y-45034200D03*
X63271400Y-45034200D03*
X60731400Y-47574200D03*
X63271400Y-47574200D03*
D13*
X55499000Y-24714200D03*
D14*
X58039000Y-24714200D03*
X55499000Y-27254200D03*
X58039000Y-27254200D03*
X55499000Y-29794200D03*
X58039000Y-29794200D03*
X55499000Y-32334200D03*
X58039000Y-32334200D03*
X55499000Y-34874200D03*
X58039000Y-34874200D03*
X55499000Y-37414200D03*
X58039000Y-37414200D03*
X55499000Y-39954200D03*
X58039000Y-39954200D03*
X55499000Y-42494200D03*
X58039000Y-42494200D03*
X55499000Y-45034200D03*
X58039000Y-45034200D03*
X55499000Y-47574200D03*
X58039000Y-47574200D03*
D13*
X50266600Y-24714200D03*
D14*
X52806600Y-24714200D03*
X50266600Y-27254200D03*
X52806600Y-27254200D03*
X50266600Y-29794200D03*
X52806600Y-29794200D03*
X50266600Y-32334200D03*
X52806600Y-32334200D03*
X50266600Y-34874200D03*
X52806600Y-34874200D03*
X50266600Y-37414200D03*
X52806600Y-37414200D03*
X50266600Y-39954200D03*
X52806600Y-39954200D03*
X50266600Y-42494200D03*
X52806600Y-42494200D03*
X50266600Y-45034200D03*
X52806600Y-45034200D03*
X50266600Y-47574200D03*
X52806600Y-47574200D03*
D13*
X55753000Y-15468600D03*
D14*
X58293000Y-15468600D03*
X60833000Y-15468600D03*
X63373000Y-15468600D03*
D15*
X20294600Y-53771800D03*
D16*
X19024600Y-53771800D03*
X17754600Y-53771800D03*
X16484600Y-53771800D03*
D17*
X15990000Y-5270000D02*
X15990000Y-10590202D01*
X15990000Y-10590202D02*
X11118203Y-15461999D01*
X11118203Y-15461999D02*
X9379201Y-15461999D01*
X9379201Y-15461999D02*
X8204200Y-16637000D01*
X21070000Y-5270000D02*
X20206401Y-6133599D01*
X20206401Y-6133599D02*
X20206401Y-11453801D01*
X20206401Y-11453801D02*
X11118203Y-20541999D01*
X11118203Y-20541999D02*
X9379201Y-20541999D01*
X9379201Y-20541999D02*
X8204200Y-21717000D01*
X21070000Y-2730000D02*
X22258601Y-3918601D01*
X22258601Y-3918601D02*
X22258601Y-10202599D01*
X22258601Y-10202599D02*
X10744200Y-21717000D01*
X23610000Y-5270000D02*
X22746401Y-6133599D01*
X22746401Y-6133599D02*
X22746401Y-11453801D01*
X9379201Y-23081999D02*
X8204200Y-24257000D01*
X22746401Y-11453801D02*
X11118203Y-23081999D01*
X11118203Y-23081999D02*
X9379201Y-23081999D01*
X26150000Y-5270000D02*
X26150000Y-10590202D01*
X26150000Y-10590202D02*
X11118203Y-25621999D01*
X11118203Y-25621999D02*
X9379201Y-25621999D01*
X9379201Y-25621999D02*
X8204200Y-26797000D01*
X26150000Y-2730000D02*
X27338601Y-3918601D01*
X27338601Y-3918601D02*
X27338601Y-10202599D01*
X27338601Y-10202599D02*
X10744200Y-26797000D01*
X28690000Y-2730000D02*
X30041399Y-4081399D01*
X30041399Y-4081399D02*
X30041399Y-5822191D01*
X30041399Y-5822191D02*
X29215010Y-6648580D01*
X29215010Y-6648580D02*
X29215009Y-10918669D01*
X10796678Y-29337000D02*
X10744200Y-29337000D01*
X29215009Y-10918669D02*
X10796678Y-29337000D01*
X31230000Y-5270000D02*
X30328611Y-6171389D01*
X30328611Y-6171389D02*
X30328611Y-11491591D01*
X30328611Y-11491591D02*
X11118203Y-30701999D01*
X11118203Y-30701999D02*
X9379201Y-30701999D01*
X9379201Y-30701999D02*
X8204200Y-31877000D01*
X33770000Y-5270000D02*
X33770000Y-10590202D01*
X33770000Y-10590202D02*
X11264002Y-33096200D01*
X11264002Y-33096200D02*
X9525000Y-33096200D01*
X9525000Y-33096200D02*
X8204200Y-34417000D01*
X33770000Y-2730000D02*
X34958601Y-3918601D01*
X34958601Y-10202599D02*
X10744200Y-34417000D01*
X34958601Y-3918601D02*
X34958601Y-10202599D01*
X36310000Y-5270000D02*
X36310000Y-10590202D01*
X36310000Y-10590202D02*
X11118203Y-35781999D01*
X11118203Y-35781999D02*
X9379201Y-35781999D01*
X9379201Y-35781999D02*
X8204200Y-36957000D01*
X36310000Y-2730000D02*
X37498601Y-3918601D01*
X37498601Y-3918601D02*
X37498601Y-10202599D01*
X37498601Y-10202599D02*
X10744200Y-36957000D01*
X38850000Y-2730000D02*
X40038601Y-3918601D01*
X40038601Y-3918601D02*
X40038601Y-10202599D01*
X40038601Y-10202599D02*
X10744200Y-39497000D01*
X43930000Y-5270000D02*
X43930000Y-8050202D01*
X43930000Y-8050202D02*
X11118203Y-40861999D01*
X9379201Y-40861999D02*
X8204200Y-42037000D01*
X11118203Y-40861999D02*
X9379201Y-40861999D01*
X46470000Y-5270000D02*
X45606401Y-6133599D01*
X45606401Y-9103799D02*
X11308201Y-43401999D01*
X11308201Y-43401999D02*
X9379201Y-43401999D01*
X45606401Y-6133599D02*
X45606401Y-9103799D01*
X9379201Y-43401999D02*
X8204200Y-44577000D01*
X46470000Y-2730000D02*
X47675800Y-3935800D01*
X47675800Y-3935800D02*
X47675800Y-8847481D01*
X47675800Y-8847481D02*
X11946281Y-44577000D01*
X11946281Y-44577000D02*
X10744200Y-44577000D01*
X49010000Y-5270000D02*
X49010000Y-8149691D01*
X49010000Y-8149691D02*
X11407690Y-45752001D01*
X9569199Y-45752001D02*
X8204200Y-47117000D01*
X11407690Y-45752001D02*
X9569199Y-45752001D01*
X50686401Y-8913801D02*
X11308201Y-48292001D01*
X11308201Y-48292001D02*
X10370197Y-48292001D01*
X10370197Y-48292001D02*
X8742791Y-49919407D01*
X51550000Y-5270000D02*
X50686401Y-6133599D01*
X50686401Y-6133599D02*
X50686401Y-8913801D01*
X9569199Y-48292001D02*
X8204200Y-49657000D01*
X11308201Y-48292001D02*
X9569199Y-48292001D01*
X51550000Y-2730000D02*
X52901399Y-4081399D01*
X52901399Y-4081399D02*
X52901399Y-7499801D01*
X52901399Y-7499801D02*
X10744200Y-49657000D01*
X54090000Y-5270000D02*
X54090000Y-8240200D01*
X54090000Y-8240200D02*
X11308201Y-51021999D01*
X9379201Y-51021999D02*
X8204200Y-52197000D01*
X11308201Y-51021999D02*
X9379201Y-51021999D01*
X54090000Y-2730000D02*
X55278601Y-3918601D01*
X55278601Y-3918601D02*
X55278601Y-8864680D01*
X55278601Y-8864680D02*
X11946281Y-52197000D01*
X11946281Y-52197000D02*
X10744200Y-52197000D01*
X56630000Y-2730000D02*
X57818601Y-3918601D01*
X57818601Y-3918601D02*
X57818601Y-8864680D01*
X57818601Y-8864680D02*
X11946281Y-54737000D01*
X11946281Y-54737000D02*
X10744200Y-54737000D01*
D18*
X56630000Y-5270000D02*
X56630000Y-8292400D01*
X56630000Y-8292400D02*
X11435401Y-53486999D01*
X11435401Y-53486999D02*
X9454201Y-53486999D01*
X9454201Y-53486999D02*
X8204200Y-54737000D01*
X49010000Y-2730000D02*
X50286399Y-4006399D01*
X50286399Y-4006399D02*
X50286399Y-5791125D01*
X50286399Y-5791125D02*
X49535010Y-6542514D01*
X49535010Y-6542514D02*
X49535009Y-8367158D01*
X49535009Y-8367158D02*
X11635166Y-46267001D01*
X11635166Y-46267001D02*
X11594199Y-46267001D01*
X11594199Y-46267001D02*
X10744200Y-47117000D01*
X38850000Y-5270000D02*
X38850000Y-10629200D01*
X38850000Y-10629200D02*
X11232201Y-38246999D01*
X11232201Y-38246999D02*
X9454201Y-38246999D01*
X9454201Y-38246999D02*
X8204200Y-39497000D01*
X18530000Y-5270000D02*
X18530000Y-9593676D01*
X18530000Y-9593676D02*
X16332200Y-11791476D01*
X16332200Y-11791476D02*
X16332200Y-12827000D01*
X16332200Y-12827000D02*
X11232201Y-17926999D01*
X11232201Y-17926999D02*
X9454201Y-17926999D01*
X9454201Y-17926999D02*
X8204200Y-19177000D01*
X23610000Y-2730000D02*
X23610000Y-3399870D01*
X23610000Y-3399870D02*
X24873601Y-4663471D01*
X24873601Y-4663471D02*
X24873601Y-10127599D01*
X24873601Y-10127599D02*
X10744200Y-24257000D01*
X13450000Y-2730000D02*
X14726399Y-4006399D01*
X14726399Y-4006399D02*
X14726399Y-10114801D01*
X14726399Y-10114801D02*
X10744200Y-14097000D01*
X31230000Y-2730000D02*
X32506399Y-4006399D01*
X32506399Y-4006399D02*
X32506399Y-10114801D01*
X32506399Y-10114801D02*
X10744200Y-31877000D01*
X8204200Y-19177000D02*
X6954199Y-20427001D01*
X6954199Y-20427001D02*
X6954199Y-38246999D01*
X6954199Y-38246999D02*
X8204200Y-39497000D01*
X13450000Y-2730000D02*
X12186399Y-1466399D01*
X12186399Y-1466399D02*
X7763471Y-1466399D01*
X7763471Y-1466399D02*
X6954199Y-2275671D01*
X6954199Y-2275671D02*
X6954199Y-17926999D01*
X6954199Y-17926999D02*
X8204200Y-19177000D01*
X8204200Y-39497000D02*
X7002119Y-39497000D01*
X7002119Y-39497000D02*
X6954199Y-39544920D01*
X6954199Y-39544920D02*
X6954199Y-53486999D01*
X6954199Y-53486999D02*
X8204200Y-54737000D01*
X50266600Y-24714200D02*
X43123800Y-24714200D01*
X43123800Y-24714200D02*
X26847800Y-40990200D01*
X26847800Y-40990200D02*
X26847800Y-42240200D01*
X55753000Y-15468600D02*
X55753000Y-19227800D01*
X55753000Y-19227800D02*
X50266600Y-24714200D01*
X28690000Y-5270000D02*
X28690000Y-10701202D01*
X9494199Y-28047001D02*
X8204200Y-29337000D01*
X28690000Y-10701202D02*
X11344201Y-28047001D01*
X11344201Y-28047001D02*
X9494199Y-28047001D01*
D17*
X13450000Y-5270000D02*
X11919201Y-6800799D01*
X11919201Y-6800799D02*
X11919201Y-9581001D01*
X11919201Y-9581001D02*
X11118203Y-10381999D01*
X11118203Y-10381999D02*
X10180199Y-10381999D01*
X10180199Y-10381999D02*
X9379201Y-11182997D01*
X9379201Y-11182997D02*
X9379201Y-12921999D01*
X9379201Y-12921999D02*
X8204200Y-14097000D01*
D18*
X8370000Y-2730000D02*
X9646399Y-4006399D01*
X9646399Y-4006399D02*
X9646399Y-7919199D01*
X9646399Y-7919199D02*
X10744200Y-9017000D01*
D17*
X15990000Y-2730000D02*
X17178601Y-3918601D01*
X17178601Y-3918601D02*
X17178601Y-10202599D01*
X17178601Y-10202599D02*
X10744200Y-16637000D01*
X63373000Y-15468600D02*
X62197999Y-16643601D01*
X62197999Y-16643601D02*
X60079001Y-16643601D01*
X60079001Y-16643601D02*
X59468001Y-16032601D01*
X59468001Y-16032601D02*
X59468001Y-13543803D01*
X59468001Y-13543803D02*
X58268611Y-12344413D01*
X58268611Y-12344413D02*
X58268611Y-2609481D01*
X58268611Y-2609481D02*
X57200529Y-1541399D01*
X57200529Y-1541399D02*
X40819471Y-1541399D01*
X40819471Y-1541399D02*
X40405070Y-1955800D01*
X40405070Y-1955800D02*
X39834930Y-1955800D01*
X39834930Y-1955800D02*
X39420529Y-1541399D01*
X39420529Y-1541399D02*
X19718601Y-1541399D01*
X19718601Y-1541399D02*
X18530000Y-2730000D01*
X18530000Y-2730000D02*
X19718601Y-3918601D01*
X19718601Y-3918601D02*
X19718601Y-10202599D01*
X19718601Y-10202599D02*
X10744200Y-19177000D01*
M02*
