G04 #@! TF.FileFunction,Copper,L2,Bot,Signal*
%FSLAX46Y46*%
G04 Gerber Fmt 4.6, Leading zero omitted, Abs format (unit mm)*
G04 Created by KiCad (PCBNEW 4.0.6) date Wednesday, 16 August 2017 'AMt' 10:02:17*
%MOMM*%
%LPD*%
G01*
G04 APERTURE LIST*
%ADD10C,0.100000*%
%ADD11R,1.500000X1.300000*%
%ADD12R,1.143000X0.508000*%
%ADD13R,2.540000X3.510000*%
%ADD14R,1.727200X1.727200*%
%ADD15O,1.727200X1.727200*%
%ADD16R,1.700000X1.700000*%
%ADD17O,1.700000X1.700000*%
%ADD18R,1.800000X1.750000*%
%ADD19R,1.500000X1.250000*%
%ADD20R,1.250000X1.500000*%
%ADD21R,1.000000X1.000000*%
%ADD22O,1.000000X1.000000*%
%ADD23C,0.250000*%
%ADD24C,0.400000*%
G04 APERTURE END LIST*
D10*
D11*
X53394600Y-10439400D03*
X50694600Y-10439400D03*
D12*
X48209200Y-11734800D03*
X48209200Y-10464800D03*
X48209200Y-9194800D03*
X48209200Y-7924800D03*
X41859200Y-7924800D03*
X41859200Y-9194800D03*
X41859200Y-10464800D03*
X41859200Y-11734800D03*
D13*
X14709000Y-19227800D03*
X44069000Y-19227800D03*
D14*
X8370000Y-5270000D03*
D15*
X8370000Y-2730000D03*
X10910000Y-5270000D03*
X10910000Y-2730000D03*
X13450000Y-5270000D03*
X13450000Y-2730000D03*
X15990000Y-5270000D03*
X15990000Y-2730000D03*
X18530000Y-5270000D03*
X18530000Y-2730000D03*
X21070000Y-5270000D03*
X21070000Y-2730000D03*
X23610000Y-5270000D03*
X23610000Y-2730000D03*
X26150000Y-5270000D03*
X26150000Y-2730000D03*
X28690000Y-5270000D03*
X28690000Y-2730000D03*
X31230000Y-5270000D03*
X31230000Y-2730000D03*
X33770000Y-5270000D03*
X33770000Y-2730000D03*
X36310000Y-5270000D03*
X36310000Y-2730000D03*
X38850000Y-5270000D03*
X38850000Y-2730000D03*
X41390000Y-5270000D03*
X41390000Y-2730000D03*
X43930000Y-5270000D03*
X43930000Y-2730000D03*
X46470000Y-5270000D03*
X46470000Y-2730000D03*
X49010000Y-5270000D03*
X49010000Y-2730000D03*
X51550000Y-5270000D03*
X51550000Y-2730000D03*
X54090000Y-5270000D03*
X54090000Y-2730000D03*
X56630000Y-5270000D03*
X56630000Y-2730000D03*
D16*
X8204200Y-9017000D03*
D17*
X10744200Y-9017000D03*
X8204200Y-11557000D03*
X10744200Y-11557000D03*
X8204200Y-14097000D03*
X10744200Y-14097000D03*
X8204200Y-16637000D03*
X10744200Y-16637000D03*
X8204200Y-19177000D03*
X10744200Y-19177000D03*
X8204200Y-21717000D03*
X10744200Y-21717000D03*
X8204200Y-24257000D03*
X10744200Y-24257000D03*
X8204200Y-26797000D03*
X10744200Y-26797000D03*
X8204200Y-29337000D03*
X10744200Y-29337000D03*
X8204200Y-31877000D03*
X10744200Y-31877000D03*
X8204200Y-34417000D03*
X10744200Y-34417000D03*
X8204200Y-36957000D03*
X10744200Y-36957000D03*
X8204200Y-39497000D03*
X10744200Y-39497000D03*
X8204200Y-42037000D03*
X10744200Y-42037000D03*
X8204200Y-44577000D03*
X10744200Y-44577000D03*
X8204200Y-47117000D03*
X10744200Y-47117000D03*
X8204200Y-49657000D03*
X10744200Y-49657000D03*
X8204200Y-52197000D03*
X10744200Y-52197000D03*
X8204200Y-54737000D03*
X10744200Y-54737000D03*
D12*
X14732000Y-29768800D03*
X14732000Y-31038800D03*
X14732000Y-32308800D03*
X14732000Y-33578800D03*
X21082000Y-33578800D03*
X21082000Y-32308800D03*
X21082000Y-31038800D03*
X21082000Y-29768800D03*
D18*
X24714200Y-35127600D03*
X24714200Y-31877600D03*
D19*
X39019800Y-8051800D03*
X36519800Y-8051800D03*
D11*
X50499000Y-14249400D03*
X47799000Y-14249400D03*
X53394600Y-8204200D03*
X50694600Y-8204200D03*
D16*
X59461400Y-11252200D03*
D17*
X59461400Y-8712200D03*
D16*
X26847800Y-42240200D03*
D17*
X29387800Y-42240200D03*
X26847800Y-44780200D03*
X29387800Y-44780200D03*
X26847800Y-47320200D03*
X29387800Y-47320200D03*
X26847800Y-49860200D03*
X29387800Y-49860200D03*
X26847800Y-52400200D03*
X29387800Y-52400200D03*
X26847800Y-54940200D03*
X29387800Y-54940200D03*
D16*
X32131000Y-42240200D03*
D17*
X34671000Y-42240200D03*
X32131000Y-44780200D03*
X34671000Y-44780200D03*
X32131000Y-47320200D03*
X34671000Y-47320200D03*
X32131000Y-49860200D03*
X34671000Y-49860200D03*
X32131000Y-52400200D03*
X34671000Y-52400200D03*
X32131000Y-54940200D03*
X34671000Y-54940200D03*
D16*
X37515800Y-42240200D03*
D17*
X40055800Y-42240200D03*
X37515800Y-44780200D03*
X40055800Y-44780200D03*
X37515800Y-47320200D03*
X40055800Y-47320200D03*
X37515800Y-49860200D03*
X40055800Y-49860200D03*
X37515800Y-52400200D03*
X40055800Y-52400200D03*
X37515800Y-54940200D03*
X40055800Y-54940200D03*
D16*
X60731400Y-24714200D03*
D17*
X63271400Y-24714200D03*
X60731400Y-27254200D03*
X63271400Y-27254200D03*
X60731400Y-29794200D03*
X63271400Y-29794200D03*
X60731400Y-32334200D03*
X63271400Y-32334200D03*
X60731400Y-34874200D03*
X63271400Y-34874200D03*
X60731400Y-37414200D03*
X63271400Y-37414200D03*
X60731400Y-39954200D03*
X63271400Y-39954200D03*
X60731400Y-42494200D03*
X63271400Y-42494200D03*
X60731400Y-45034200D03*
X63271400Y-45034200D03*
X60731400Y-47574200D03*
X63271400Y-47574200D03*
D16*
X55499000Y-24714200D03*
D17*
X58039000Y-24714200D03*
X55499000Y-27254200D03*
X58039000Y-27254200D03*
X55499000Y-29794200D03*
X58039000Y-29794200D03*
X55499000Y-32334200D03*
X58039000Y-32334200D03*
X55499000Y-34874200D03*
X58039000Y-34874200D03*
X55499000Y-37414200D03*
X58039000Y-37414200D03*
X55499000Y-39954200D03*
X58039000Y-39954200D03*
X55499000Y-42494200D03*
X58039000Y-42494200D03*
X55499000Y-45034200D03*
X58039000Y-45034200D03*
X55499000Y-47574200D03*
X58039000Y-47574200D03*
D16*
X50266600Y-24714200D03*
D17*
X52806600Y-24714200D03*
X50266600Y-27254200D03*
X52806600Y-27254200D03*
X50266600Y-29794200D03*
X52806600Y-29794200D03*
X50266600Y-32334200D03*
X52806600Y-32334200D03*
X50266600Y-34874200D03*
X52806600Y-34874200D03*
X50266600Y-37414200D03*
X52806600Y-37414200D03*
X50266600Y-39954200D03*
X52806600Y-39954200D03*
X50266600Y-42494200D03*
X52806600Y-42494200D03*
X50266600Y-45034200D03*
X52806600Y-45034200D03*
X50266600Y-47574200D03*
X52806600Y-47574200D03*
D16*
X55753000Y-15468600D03*
D17*
X58293000Y-15468600D03*
X60833000Y-15468600D03*
X63373000Y-15468600D03*
D19*
X30231400Y-32283400D03*
X27731400Y-32283400D03*
X30180600Y-35382200D03*
X27680600Y-35382200D03*
D20*
X15113000Y-27132600D03*
X15113000Y-24632600D03*
D11*
X14575800Y-40716200D03*
X17275800Y-40716200D03*
X14575800Y-43408600D03*
X17275800Y-43408600D03*
X14575800Y-46050200D03*
X17275800Y-46050200D03*
D21*
X1244600Y-47828200D03*
D22*
X2514600Y-47828200D03*
X3784600Y-47828200D03*
X5054600Y-47828200D03*
D23*
X14575800Y-40716200D02*
X9525000Y-40716200D01*
X9525000Y-40716200D02*
X8204200Y-42037000D01*
X14575800Y-43408600D02*
X11314802Y-43408600D01*
X11314802Y-43408600D02*
X11308201Y-43401999D01*
X11308201Y-43401999D02*
X9379201Y-43401999D01*
X9379201Y-43401999D02*
X8204200Y-44577000D01*
X14575800Y-46050200D02*
X13550002Y-46050200D01*
X9379201Y-48292001D02*
X8204200Y-47117000D01*
X13550002Y-46050200D02*
X11308201Y-48292001D01*
X11308201Y-48292001D02*
X9379201Y-48292001D01*
X21082000Y-32308800D02*
X20764500Y-32308800D01*
X20764500Y-32308800D02*
X18803501Y-30347801D01*
X18803501Y-30347801D02*
X13900499Y-30347801D01*
X13900499Y-30347801D02*
X13835499Y-30282801D01*
X14709000Y-21232800D02*
X14709000Y-19227800D01*
X13835499Y-30282801D02*
X13835499Y-22106301D01*
X13835499Y-22106301D02*
X14709000Y-21232800D01*
D24*
X39019800Y-8051800D02*
X39019800Y-15848600D01*
X39019800Y-15848600D02*
X42399000Y-19227800D01*
X42399000Y-19227800D02*
X44069000Y-19227800D01*
X41859200Y-11734800D02*
X41859200Y-10464800D01*
X41859200Y-10464800D02*
X41859200Y-9194800D01*
X41859200Y-9194800D02*
X41859200Y-7924800D01*
X41859200Y-7924800D02*
X39146800Y-7924800D01*
X39146800Y-7924800D02*
X39019800Y-8051800D01*
X15113000Y-24632600D02*
X16138000Y-24632600D01*
X16379001Y-17152799D02*
X13323202Y-14097000D01*
X16138000Y-24632600D02*
X16379001Y-24391599D01*
X13323202Y-14097000D02*
X10744200Y-14097000D01*
X16379001Y-24391599D02*
X16379001Y-17152799D01*
X30231400Y-32283400D02*
X30356400Y-32283400D01*
X30356400Y-32283400D02*
X43412000Y-19227800D01*
X43412000Y-19227800D02*
X44069000Y-19227800D01*
X21082000Y-33578800D02*
X21082000Y-34232800D01*
X21082000Y-34232800D02*
X23256401Y-36407201D01*
X23256401Y-36407201D02*
X29030600Y-36407200D01*
X29030600Y-36407200D02*
X30055600Y-35382200D01*
X30055600Y-35382200D02*
X30180600Y-35382200D01*
X30231400Y-32283400D02*
X30231400Y-35331400D01*
X30231400Y-35331400D02*
X30180600Y-35382200D01*
X63271400Y-24714200D02*
X60579000Y-22021800D01*
X60579000Y-22021800D02*
X50538998Y-22021800D01*
X50538998Y-22021800D02*
X40055800Y-32504998D01*
X40055800Y-32504998D02*
X40055800Y-42240200D01*
X46093199Y-16718601D02*
X56870600Y-16718601D01*
X59543001Y-16718601D02*
X56870600Y-16718601D01*
X56870600Y-16718601D02*
X57042999Y-16718601D01*
X63271400Y-24714200D02*
X63271400Y-20447000D01*
X63271400Y-20447000D02*
X59543001Y-16718601D01*
X44069000Y-19227800D02*
X44069000Y-18742800D01*
X44069000Y-18742800D02*
X46093199Y-16718601D01*
X57042999Y-16718601D02*
X58293000Y-15468600D01*
X49010000Y-2730000D02*
X50273601Y-1466399D01*
X50273601Y-1466399D02*
X54696529Y-1466399D01*
X54696529Y-1466399D02*
X55366399Y-2136269D01*
X55366399Y-2136269D02*
X55366399Y-4006399D01*
X55366399Y-4006399D02*
X56630000Y-5270000D01*
X58293000Y-15468600D02*
X60711401Y-13050199D01*
X60711401Y-9962201D02*
X59461400Y-8712200D01*
X60711401Y-13050199D02*
X60711401Y-9962201D01*
X21082000Y-33578800D02*
X20764500Y-33578800D01*
X20764500Y-33578800D02*
X20110499Y-34232801D01*
X20110499Y-34232801D02*
X13100001Y-34232801D01*
X13100001Y-34232801D02*
X10744200Y-31877000D01*
X56630000Y-5270000D02*
X59461400Y-8101400D01*
X59461400Y-8101400D02*
X59461400Y-8712200D01*
X43930000Y-2730000D02*
X45293601Y-1366399D01*
X47646399Y-1366399D02*
X49010000Y-2730000D01*
X45293601Y-1366399D02*
X47646399Y-1366399D01*
X31230000Y-2730000D02*
X32593601Y-1366399D01*
X32593601Y-1366399D02*
X42566399Y-1366399D01*
X42566399Y-1366399D02*
X43930000Y-2730000D01*
X23610000Y-2730000D02*
X24973601Y-1366399D01*
X24973601Y-1366399D02*
X29866399Y-1366399D01*
X29866399Y-1366399D02*
X31230000Y-2730000D01*
X13450000Y-2730000D02*
X14813601Y-1366399D01*
X14813601Y-1366399D02*
X22246399Y-1366399D01*
X22246399Y-1366399D02*
X23610000Y-2730000D01*
X6223000Y-37092200D02*
X6223000Y-36957000D01*
X6223000Y-36957000D02*
X6223000Y-31318200D01*
X5565001Y-37614999D02*
X6223000Y-36957000D01*
X2514600Y-47828200D02*
X2514600Y-47121094D01*
X2514600Y-47121094D02*
X700199Y-45306693D01*
X700199Y-45306693D02*
X700199Y-37694999D01*
X780199Y-37614999D02*
X5565001Y-37614999D01*
X700199Y-37694999D02*
X780199Y-37614999D01*
X6223000Y-31318200D02*
X8204200Y-29337000D01*
X55753000Y-15468600D02*
X50668200Y-15468600D01*
X50499000Y-15299400D02*
X50499000Y-14249400D01*
X50668200Y-15468600D02*
X50499000Y-15299400D01*
X55753000Y-15468600D02*
X55753000Y-14218600D01*
X55753000Y-14218600D02*
X53394600Y-11860200D01*
X53394600Y-11860200D02*
X53394600Y-11489400D01*
X50499000Y-14249400D02*
X50499000Y-14024600D01*
X50499000Y-14024600D02*
X48209200Y-11734800D01*
X43183699Y-7026799D02*
X43183699Y-11754101D01*
X43183699Y-11754101D02*
X46728999Y-15299401D01*
X46728999Y-15299401D02*
X49584599Y-15299401D01*
X49584599Y-15299401D02*
X53394600Y-11489400D01*
X53394600Y-11489400D02*
X53394600Y-10439400D01*
X53394600Y-10439400D02*
X53294600Y-10439400D01*
X53394600Y-8204200D02*
X53394600Y-10439400D01*
X37669801Y-7026799D02*
X43183699Y-7026799D01*
X36519800Y-8051800D02*
X36644800Y-8051800D01*
X36644800Y-8051800D02*
X37669801Y-7026799D01*
X28690000Y-15156800D02*
X28690000Y-8204200D01*
X36519800Y-8051800D02*
X28842400Y-8051800D01*
X28690000Y-8204200D02*
X28690000Y-5270000D01*
X28842400Y-8051800D02*
X28690000Y-8204200D01*
X14732000Y-29114800D02*
X15417800Y-28429000D01*
X15417800Y-28429000D02*
X28690000Y-15156800D01*
X15113000Y-27132600D02*
X15113000Y-27927000D01*
X15113000Y-27927000D02*
X15417800Y-28231800D01*
X15417800Y-28231800D02*
X15417800Y-28429000D01*
X14732000Y-29768800D02*
X14732000Y-29114800D01*
X8204200Y-9017000D02*
X6954200Y-9017000D01*
X6954200Y-9017000D02*
X6504189Y-9467011D01*
X6504189Y-9467011D02*
X6504189Y-27636989D01*
X6504189Y-27636989D02*
X8204200Y-29337000D01*
X15049500Y-29768800D02*
X14732000Y-29768800D01*
X8370000Y-5270000D02*
X8370000Y-8851200D01*
X8370000Y-8851200D02*
X8204200Y-9017000D01*
D23*
X14732000Y-33578800D02*
X14414500Y-33578800D01*
X14414500Y-33578800D02*
X11347701Y-30512001D01*
X9569199Y-29901001D02*
X9569199Y-25457411D01*
X9569199Y-25457411D02*
X7665609Y-25457411D01*
X11347701Y-30512001D02*
X10180199Y-30512001D01*
X10180199Y-30512001D02*
X9569199Y-29901001D01*
X7665609Y-25457411D02*
X7029199Y-24821001D01*
X7029199Y-12732001D02*
X8204200Y-11557000D01*
X7029199Y-24821001D02*
X7029199Y-12732001D01*
X10910000Y-5270000D02*
X9569199Y-6610801D01*
X9569199Y-6610801D02*
X9569199Y-10192001D01*
X9569199Y-10192001D02*
X8204200Y-11557000D01*
X14732000Y-32308800D02*
X14414500Y-32308800D01*
X11919201Y-26232999D02*
X11118203Y-25432001D01*
X14414500Y-32308800D02*
X11919201Y-29813501D01*
X11919201Y-29813501D02*
X11919201Y-26232999D01*
X11118203Y-25432001D02*
X10180199Y-25432001D01*
X9379201Y-24631003D02*
X9379201Y-21164801D01*
X9379201Y-21164801D02*
X8768201Y-20553801D01*
X10180199Y-25432001D02*
X9379201Y-24631003D01*
X8768201Y-20553801D02*
X8768201Y-20352001D01*
X8768201Y-20352001D02*
X9379201Y-19741001D01*
X9379201Y-19741001D02*
X9379201Y-15272001D01*
X9379201Y-15272001D02*
X8204200Y-14097000D01*
D24*
X10910000Y-2730000D02*
X12186399Y-4006399D01*
X12186399Y-4006399D02*
X12186399Y-10114801D01*
X12186399Y-10114801D02*
X10744200Y-11557000D01*
D23*
X41390000Y-5270000D02*
X42578601Y-4081399D01*
X44663327Y-4081399D02*
X45281399Y-4699471D01*
X45281399Y-4699471D02*
X45281399Y-5840529D01*
X42578601Y-4081399D02*
X44663327Y-4081399D01*
X45281399Y-5840529D02*
X47365670Y-7924800D01*
X47365670Y-7924800D02*
X48209200Y-7924800D01*
X50694600Y-8204200D02*
X48488600Y-8204200D01*
X48488600Y-8204200D02*
X48209200Y-7924800D01*
X48209200Y-9194800D02*
X50350000Y-9194800D01*
X50350000Y-9194800D02*
X50694600Y-9539400D01*
X50694600Y-9539400D02*
X50694600Y-10439400D01*
X41390000Y-2730000D02*
X41390000Y-3510870D01*
X40201399Y-4699471D02*
X40201399Y-5840529D01*
X40201399Y-5840529D02*
X40862659Y-6501789D01*
X41390000Y-3510870D02*
X40201399Y-4699471D01*
X40862659Y-6501789D02*
X45198689Y-6501789D01*
X45198689Y-6501789D02*
X47891700Y-9194800D01*
X47891700Y-9194800D02*
X48209200Y-9194800D01*
X48450000Y-9194800D02*
X48209200Y-9194800D01*
X59461400Y-11252200D02*
X58361400Y-11252200D01*
X48526700Y-10464800D02*
X48209200Y-10464800D01*
X58361400Y-11252200D02*
X54338399Y-7229199D01*
X54338399Y-7229199D02*
X52384599Y-7229199D01*
X51769601Y-7844197D02*
X51769601Y-11349401D01*
X52384599Y-7229199D02*
X51769601Y-7844197D01*
X49476301Y-11414401D02*
X48526700Y-10464800D01*
X51769601Y-11349401D02*
X51704601Y-11414401D01*
X51704601Y-11414401D02*
X49476301Y-11414401D01*
X48209200Y-10464800D02*
X47387700Y-10464800D01*
X47387700Y-10464800D02*
X46799000Y-11053500D01*
X46799000Y-11053500D02*
X46799000Y-12349400D01*
X46799000Y-12349400D02*
X47799000Y-13349400D01*
X47799000Y-13349400D02*
X47799000Y-14249400D01*
X14859000Y-30848300D02*
X14859000Y-30911800D01*
X14859000Y-30911800D02*
X14732000Y-31038800D01*
X15049500Y-31038800D02*
X14732000Y-31038800D01*
X60833000Y-15468600D02*
X61682999Y-14618601D01*
X61682999Y-14618601D02*
X61682999Y-8956001D01*
X61682999Y-8956001D02*
X57818601Y-5091603D01*
X56500519Y-841389D02*
X13579481Y-841389D01*
X13579481Y-841389D02*
X12261399Y-2159471D01*
X57818601Y-5091603D02*
X57818601Y-2159471D01*
X57818601Y-2159471D02*
X56500519Y-841389D01*
X12261399Y-2159471D02*
X12261399Y-3300529D01*
X12261399Y-3300529D02*
X12879471Y-3918601D01*
X12879471Y-3918601D02*
X14801399Y-3918601D01*
X14801399Y-3918601D02*
X15990000Y-2730000D01*
X24714200Y-31877600D02*
X27325600Y-31877600D01*
X27325600Y-31877600D02*
X27731400Y-32283400D01*
X21082000Y-29768800D02*
X23730400Y-29768800D01*
X23730400Y-29768800D02*
X24714200Y-30752600D01*
X24714200Y-30752600D02*
X24714200Y-31877600D01*
X21082000Y-29768800D02*
X21399500Y-29768800D01*
X23919800Y-32402800D02*
X23919800Y-32427800D01*
X24714200Y-35127600D02*
X27426000Y-35127600D01*
X27426000Y-35127600D02*
X27680600Y-35382200D01*
X21082000Y-31038800D02*
X21515398Y-31038800D01*
X21515398Y-31038800D02*
X23564200Y-33087602D01*
X23564200Y-33087602D02*
X23564200Y-34002600D01*
X23564200Y-34002600D02*
X24689200Y-35127600D01*
X24689200Y-35127600D02*
X24714200Y-35127600D01*
X21082000Y-31038800D02*
X21399500Y-31038800D01*
X1244600Y-47828200D02*
X1244600Y-48578200D01*
X2441399Y-49774999D02*
X5048001Y-49774999D01*
X1244600Y-48578200D02*
X2441399Y-49774999D01*
X5048001Y-49774999D02*
X7029199Y-51756197D01*
X7029199Y-51756197D02*
X7029199Y-52761001D01*
X7640199Y-53372001D02*
X9543789Y-53372001D01*
X9543789Y-53372001D02*
X9543789Y-55275591D01*
X7029199Y-52761001D02*
X7640199Y-53372001D01*
X9543789Y-55275591D02*
X10180199Y-55912001D01*
X10180199Y-55912001D02*
X11308201Y-55912001D01*
X11308201Y-55912001D02*
X18800811Y-48419391D01*
X18800811Y-48419391D02*
X18800811Y-42141211D01*
X18800811Y-42141211D02*
X17375800Y-40716200D01*
X17375800Y-40716200D02*
X17275800Y-40716200D01*
X3784600Y-47828200D02*
X6788401Y-50832001D01*
X6788401Y-50832001D02*
X9543789Y-50832001D01*
X9543789Y-50832001D02*
X9543789Y-52735591D01*
X9543789Y-52735591D02*
X10180199Y-53372001D01*
X10180199Y-53372001D02*
X11939001Y-53372001D01*
X11939001Y-53372001D02*
X18350801Y-46960201D01*
X18350801Y-46960201D02*
X18350801Y-44383601D01*
X18350801Y-44383601D02*
X17375800Y-43408600D01*
X17375800Y-43408600D02*
X17275800Y-43408600D01*
X17275800Y-43408600D02*
X17175800Y-43408600D01*
X5054600Y-47828200D02*
X5708399Y-48481999D01*
X5708399Y-48481999D02*
X8768201Y-48481999D01*
X8768201Y-48481999D02*
X9569199Y-49282997D01*
X9569199Y-49282997D02*
X9569199Y-50221001D01*
X9569199Y-50221001D02*
X10180199Y-50832001D01*
X10180199Y-50832001D02*
X12393999Y-50832001D01*
X12393999Y-50832001D02*
X17175800Y-46050200D01*
X17175800Y-46050200D02*
X17275800Y-46050200D01*
M02*
