G04 #@! TF.FileFunction,Legend,Bot*
%FSLAX46Y46*%
G04 Gerber Fmt 4.6, Leading zero omitted, Abs format (unit mm)*
G04 Created by KiCad (PCBNEW 4.0.6) date Wednesday, 16 August 2017 'AMt' 00:55:37*
%MOMM*%
%LPD*%
G01*
G04 APERTURE LIST*
%ADD10C,0.100000*%
%ADD11C,0.120000*%
%ADD12C,0.150000*%
G04 APERTURE END LIST*
D10*
D11*
X21543630Y-11116011D02*
G75*
G03X18697000Y-15617800I7845370J-8111789D01*
G01*
X37234370Y-27339589D02*
G75*
G03X40081000Y-22837800I-7845370J8111789D01*
G01*
X37234370Y-11116011D02*
G75*
G02X40081000Y-15617800I-7845370J-8111789D01*
G01*
X21543630Y-27339589D02*
G75*
G02X18697000Y-22837800I7845370J8111789D01*
G01*
X15079000Y-17327800D02*
X15079000Y-15617800D01*
X18697000Y-15617800D02*
X15079000Y-15617800D01*
X25529000Y-11117800D02*
X21541700Y-11117800D01*
X27729000Y-13317800D02*
X25529000Y-11117800D01*
X31049000Y-13317800D02*
X27729000Y-13317800D01*
X31049000Y-13317800D02*
X33249000Y-11117800D01*
X37236300Y-11117800D02*
X33249000Y-11117800D01*
X43699000Y-17327800D02*
X43699000Y-15617800D01*
X43699000Y-15617800D02*
X40081000Y-15617800D01*
X40081000Y-22837800D02*
X43699000Y-22837800D01*
X43699000Y-21127800D02*
X43699000Y-22837800D01*
X21541700Y-27337800D02*
X37236300Y-27337800D01*
X15079000Y-21127800D02*
X15079000Y-22837800D01*
X15079000Y-22837800D02*
X18697000Y-22837800D01*
D12*
X15621000Y-29133800D02*
X15621000Y-34213800D01*
X15621000Y-34213800D02*
X20193000Y-34213800D01*
X20193000Y-34213800D02*
X20193000Y-29133800D01*
X20193000Y-29133800D02*
X15621000Y-29133800D01*
X17145000Y-29133800D02*
X17145000Y-29641800D01*
X17145000Y-29641800D02*
X18415000Y-29641800D01*
X18415000Y-29641800D02*
X18415000Y-29133800D01*
D11*
X26019800Y-32477800D02*
X26019800Y-31377800D01*
X24119800Y-32477800D02*
X24119800Y-31377800D01*
X25969800Y-34627800D02*
X24169800Y-34627800D01*
D12*
X35136200Y-7303400D02*
X36136200Y-7303400D01*
X36136200Y-9003400D02*
X35136200Y-9003400D01*
X50936600Y-13448000D02*
X52136600Y-13448000D01*
X52136600Y-11698000D02*
X50936600Y-11698000D01*
X50936600Y-11314400D02*
X52136600Y-11314400D01*
X52136600Y-9564400D02*
X50936600Y-9564400D01*
X50936600Y-9180800D02*
X52136600Y-9180800D01*
X52136600Y-7430800D02*
X50936600Y-7430800D01*
X45847000Y-12623800D02*
X45847000Y-7543800D01*
X45847000Y-7543800D02*
X41275000Y-7543800D01*
X41275000Y-7543800D02*
X41275000Y-12623800D01*
X41275000Y-12623800D02*
X45847000Y-12623800D01*
X44323000Y-12623800D02*
X44323000Y-12115800D01*
X44323000Y-12115800D02*
X43053000Y-12115800D01*
X43053000Y-12115800D02*
X43053000Y-12623800D01*
X28247400Y-29503000D02*
X29247400Y-29503000D01*
X29247400Y-31203000D02*
X28247400Y-31203000D01*
X28247400Y-32703400D02*
X29247400Y-32703400D01*
X29247400Y-34403400D02*
X28247400Y-34403400D01*
X15963000Y-25027000D02*
X15963000Y-26027000D01*
X14263000Y-26027000D02*
X14263000Y-25027000D01*
X18303800Y-40501600D02*
X17103800Y-40501600D01*
X17103800Y-42251600D02*
X18303800Y-42251600D01*
X18303800Y-43397200D02*
X17103800Y-43397200D01*
X17103800Y-45147200D02*
X18303800Y-45147200D01*
X18303800Y-46343600D02*
X17103800Y-46343600D01*
X17103800Y-48093600D02*
X18303800Y-48093600D01*
X30174714Y-11536371D02*
X30031857Y-11583990D01*
X29984238Y-11631610D01*
X29936619Y-11726848D01*
X29936619Y-11869705D01*
X29984238Y-11964943D01*
X30031857Y-12012562D01*
X30127095Y-12060181D01*
X30508048Y-12060181D01*
X30508048Y-11060181D01*
X30174714Y-11060181D01*
X30079476Y-11107800D01*
X30031857Y-11155419D01*
X29984238Y-11250657D01*
X29984238Y-11345895D01*
X30031857Y-11441133D01*
X30079476Y-11488752D01*
X30174714Y-11536371D01*
X30508048Y-11536371D01*
X29650905Y-11060181D02*
X29079476Y-11060181D01*
X29365191Y-12060181D02*
X29365191Y-11060181D01*
X28222333Y-12060181D02*
X28793762Y-12060181D01*
X28508048Y-12060181D02*
X28508048Y-11060181D01*
X28603286Y-11203038D01*
X28698524Y-11298276D01*
X28793762Y-11345895D01*
X16089381Y-30911895D02*
X16898905Y-30911895D01*
X16994143Y-30959514D01*
X17041762Y-31007133D01*
X17089381Y-31102371D01*
X17089381Y-31292848D01*
X17041762Y-31388086D01*
X16994143Y-31435705D01*
X16898905Y-31483324D01*
X16089381Y-31483324D01*
X17089381Y-32483324D02*
X17089381Y-31911895D01*
X17089381Y-32197609D02*
X16089381Y-32197609D01*
X16232238Y-32102371D01*
X16327476Y-32007133D01*
X16375095Y-31911895D01*
X26995990Y-31451609D02*
X27472181Y-31451609D01*
X26472181Y-31118276D02*
X26995990Y-31451609D01*
X26472181Y-31784943D01*
X27472181Y-32642086D02*
X27472181Y-32070657D01*
X27472181Y-32356371D02*
X26472181Y-32356371D01*
X26615038Y-32261133D01*
X26710276Y-32165895D01*
X26757895Y-32070657D01*
X35802866Y-6410543D02*
X35850485Y-6458162D01*
X35993342Y-6505781D01*
X36088580Y-6505781D01*
X36231438Y-6458162D01*
X36326676Y-6362924D01*
X36374295Y-6267686D01*
X36421914Y-6077210D01*
X36421914Y-5934352D01*
X36374295Y-5743876D01*
X36326676Y-5648638D01*
X36231438Y-5553400D01*
X36088580Y-5505781D01*
X35993342Y-5505781D01*
X35850485Y-5553400D01*
X35802866Y-5601019D01*
X35421914Y-5601019D02*
X35374295Y-5553400D01*
X35279057Y-5505781D01*
X35040961Y-5505781D01*
X34945723Y-5553400D01*
X34898104Y-5601019D01*
X34850485Y-5696257D01*
X34850485Y-5791495D01*
X34898104Y-5934352D01*
X35469533Y-6505781D01*
X34850485Y-6505781D01*
X51703266Y-10925381D02*
X52036600Y-10449190D01*
X52274695Y-10925381D02*
X52274695Y-9925381D01*
X51893742Y-9925381D01*
X51798504Y-9973000D01*
X51750885Y-10020619D01*
X51703266Y-10115857D01*
X51703266Y-10258714D01*
X51750885Y-10353952D01*
X51798504Y-10401571D01*
X51893742Y-10449190D01*
X52274695Y-10449190D01*
X51322314Y-10020619D02*
X51274695Y-9973000D01*
X51179457Y-9925381D01*
X50941361Y-9925381D01*
X50846123Y-9973000D01*
X50798504Y-10020619D01*
X50750885Y-10115857D01*
X50750885Y-10211095D01*
X50798504Y-10353952D01*
X51369933Y-10925381D01*
X50750885Y-10925381D01*
X51703266Y-8791781D02*
X52036600Y-8315590D01*
X52274695Y-8791781D02*
X52274695Y-7791781D01*
X51893742Y-7791781D01*
X51798504Y-7839400D01*
X51750885Y-7887019D01*
X51703266Y-7982257D01*
X51703266Y-8125114D01*
X51750885Y-8220352D01*
X51798504Y-8267971D01*
X51893742Y-8315590D01*
X52274695Y-8315590D01*
X51369933Y-7791781D02*
X50750885Y-7791781D01*
X51084219Y-8172733D01*
X50941361Y-8172733D01*
X50846123Y-8220352D01*
X50798504Y-8267971D01*
X50750885Y-8363210D01*
X50750885Y-8601305D01*
X50798504Y-8696543D01*
X50846123Y-8744162D01*
X50941361Y-8791781D01*
X51227076Y-8791781D01*
X51322314Y-8744162D01*
X51369933Y-8696543D01*
X51703266Y-6658181D02*
X52036600Y-6181990D01*
X52274695Y-6658181D02*
X52274695Y-5658181D01*
X51893742Y-5658181D01*
X51798504Y-5705800D01*
X51750885Y-5753419D01*
X51703266Y-5848657D01*
X51703266Y-5991514D01*
X51750885Y-6086752D01*
X51798504Y-6134371D01*
X51893742Y-6181990D01*
X52274695Y-6181990D01*
X50846123Y-5991514D02*
X50846123Y-6658181D01*
X51084219Y-5610562D02*
X51322314Y-6324848D01*
X50703266Y-6324848D01*
X44283381Y-9321895D02*
X45092905Y-9321895D01*
X45188143Y-9369514D01*
X45235762Y-9417133D01*
X45283381Y-9512371D01*
X45283381Y-9702848D01*
X45235762Y-9798086D01*
X45188143Y-9845705D01*
X45092905Y-9893324D01*
X44283381Y-9893324D01*
X44378619Y-10321895D02*
X44331000Y-10369514D01*
X44283381Y-10464752D01*
X44283381Y-10702848D01*
X44331000Y-10798086D01*
X44378619Y-10845705D01*
X44473857Y-10893324D01*
X44569095Y-10893324D01*
X44711952Y-10845705D01*
X45283381Y-10274276D01*
X45283381Y-10893324D01*
X28914066Y-28610143D02*
X28961685Y-28657762D01*
X29104542Y-28705381D01*
X29199780Y-28705381D01*
X29342638Y-28657762D01*
X29437876Y-28562524D01*
X29485495Y-28467286D01*
X29533114Y-28276810D01*
X29533114Y-28133952D01*
X29485495Y-27943476D01*
X29437876Y-27848238D01*
X29342638Y-27753000D01*
X29199780Y-27705381D01*
X29104542Y-27705381D01*
X28961685Y-27753000D01*
X28914066Y-27800619D01*
X27961685Y-28705381D02*
X28533114Y-28705381D01*
X28247400Y-28705381D02*
X28247400Y-27705381D01*
X28342638Y-27848238D01*
X28437876Y-27943476D01*
X28533114Y-27991095D01*
X28914066Y-31810543D02*
X28961685Y-31858162D01*
X29104542Y-31905781D01*
X29199780Y-31905781D01*
X29342638Y-31858162D01*
X29437876Y-31762924D01*
X29485495Y-31667686D01*
X29533114Y-31477210D01*
X29533114Y-31334352D01*
X29485495Y-31143876D01*
X29437876Y-31048638D01*
X29342638Y-30953400D01*
X29199780Y-30905781D01*
X29104542Y-30905781D01*
X28961685Y-30953400D01*
X28914066Y-31001019D01*
X28580733Y-30905781D02*
X27961685Y-30905781D01*
X28295019Y-31286733D01*
X28152161Y-31286733D01*
X28056923Y-31334352D01*
X28009304Y-31381971D01*
X27961685Y-31477210D01*
X27961685Y-31715305D01*
X28009304Y-31810543D01*
X28056923Y-31858162D01*
X28152161Y-31905781D01*
X28437876Y-31905781D01*
X28533114Y-31858162D01*
X28580733Y-31810543D01*
X17570143Y-25360334D02*
X17617762Y-25312715D01*
X17665381Y-25169858D01*
X17665381Y-25074620D01*
X17617762Y-24931762D01*
X17522524Y-24836524D01*
X17427286Y-24788905D01*
X17236810Y-24741286D01*
X17093952Y-24741286D01*
X16903476Y-24788905D01*
X16808238Y-24836524D01*
X16713000Y-24931762D01*
X16665381Y-25074620D01*
X16665381Y-25169858D01*
X16713000Y-25312715D01*
X16760619Y-25360334D01*
X16998714Y-26217477D02*
X17665381Y-26217477D01*
X16617762Y-25979381D02*
X17332048Y-25741286D01*
X17332048Y-26360334D01*
X17870466Y-43928981D02*
X18203800Y-43452790D01*
X18441895Y-43928981D02*
X18441895Y-42928981D01*
X18060942Y-42928981D01*
X17965704Y-42976600D01*
X17918085Y-43024219D01*
X17870466Y-43119457D01*
X17870466Y-43262314D01*
X17918085Y-43357552D01*
X17965704Y-43405171D01*
X18060942Y-43452790D01*
X18441895Y-43452790D01*
X16918085Y-43928981D02*
X17489514Y-43928981D01*
X17203800Y-43928981D02*
X17203800Y-42928981D01*
X17299038Y-43071838D01*
X17394276Y-43167076D01*
X17489514Y-43214695D01*
X17870466Y-46824581D02*
X18203800Y-46348390D01*
X18441895Y-46824581D02*
X18441895Y-45824581D01*
X18060942Y-45824581D01*
X17965704Y-45872200D01*
X17918085Y-45919819D01*
X17870466Y-46015057D01*
X17870466Y-46157914D01*
X17918085Y-46253152D01*
X17965704Y-46300771D01*
X18060942Y-46348390D01*
X18441895Y-46348390D01*
X16965704Y-45824581D02*
X17441895Y-45824581D01*
X17489514Y-46300771D01*
X17441895Y-46253152D01*
X17346657Y-46205533D01*
X17108561Y-46205533D01*
X17013323Y-46253152D01*
X16965704Y-46300771D01*
X16918085Y-46396010D01*
X16918085Y-46634105D01*
X16965704Y-46729343D01*
X17013323Y-46776962D01*
X17108561Y-46824581D01*
X17346657Y-46824581D01*
X17441895Y-46776962D01*
X17489514Y-46729343D01*
X17870466Y-49770981D02*
X18203800Y-49294790D01*
X18441895Y-49770981D02*
X18441895Y-48770981D01*
X18060942Y-48770981D01*
X17965704Y-48818600D01*
X17918085Y-48866219D01*
X17870466Y-48961457D01*
X17870466Y-49104314D01*
X17918085Y-49199552D01*
X17965704Y-49247171D01*
X18060942Y-49294790D01*
X18441895Y-49294790D01*
X17013323Y-48770981D02*
X17203800Y-48770981D01*
X17299038Y-48818600D01*
X17346657Y-48866219D01*
X17441895Y-49009076D01*
X17489514Y-49199552D01*
X17489514Y-49580505D01*
X17441895Y-49675743D01*
X17394276Y-49723362D01*
X17299038Y-49770981D01*
X17108561Y-49770981D01*
X17013323Y-49723362D01*
X16965704Y-49675743D01*
X16918085Y-49580505D01*
X16918085Y-49342410D01*
X16965704Y-49247171D01*
X17013323Y-49199552D01*
X17108561Y-49151933D01*
X17299038Y-49151933D01*
X17394276Y-49199552D01*
X17441895Y-49247171D01*
X17489514Y-49342410D01*
M02*
