G04 #@! TF.FileFunction,Copper,L2,Bot,Signal*
%FSLAX46Y46*%
G04 Gerber Fmt 4.6, Leading zero omitted, Abs format (unit mm)*
G04 Created by KiCad (PCBNEW 4.0.6) date Wednesday, 16 August 2017 'AMt' 00:55:37*
%MOMM*%
%LPD*%
G01*
G04 APERTURE LIST*
%ADD10C,0.100000*%
%ADD11R,1.727200X1.727200*%
%ADD12O,1.727200X1.727200*%
%ADD13R,1.700000X1.700000*%
%ADD14O,1.700000X1.700000*%
%ADD15R,2.540000X3.510000*%
%ADD16R,1.143000X0.508000*%
%ADD17R,1.800000X1.750000*%
%ADD18R,1.500000X1.250000*%
%ADD19R,1.500000X1.300000*%
%ADD20R,1.250000X1.500000*%
%ADD21O,1.117600X1.905000*%
%ADD22R,1.117600X1.905000*%
%ADD23C,0.250000*%
%ADD24C,0.400000*%
G04 APERTURE END LIST*
D10*
D11*
X8370000Y-5270000D03*
D12*
X8370000Y-2730000D03*
X10910000Y-5270000D03*
X10910000Y-2730000D03*
X13450000Y-5270000D03*
X13450000Y-2730000D03*
X15990000Y-5270000D03*
X15990000Y-2730000D03*
X18530000Y-5270000D03*
X18530000Y-2730000D03*
X21070000Y-5270000D03*
X21070000Y-2730000D03*
X23610000Y-5270000D03*
X23610000Y-2730000D03*
X26150000Y-5270000D03*
X26150000Y-2730000D03*
X28690000Y-5270000D03*
X28690000Y-2730000D03*
X31230000Y-5270000D03*
X31230000Y-2730000D03*
X33770000Y-5270000D03*
X33770000Y-2730000D03*
X36310000Y-5270000D03*
X36310000Y-2730000D03*
X38850000Y-5270000D03*
X38850000Y-2730000D03*
X41390000Y-5270000D03*
X41390000Y-2730000D03*
X43930000Y-5270000D03*
X43930000Y-2730000D03*
X46470000Y-5270000D03*
X46470000Y-2730000D03*
X49010000Y-5270000D03*
X49010000Y-2730000D03*
X51550000Y-5270000D03*
X51550000Y-2730000D03*
X54090000Y-5270000D03*
X54090000Y-2730000D03*
X56630000Y-5270000D03*
X56630000Y-2730000D03*
D13*
X8204200Y-9017000D03*
D14*
X10744200Y-9017000D03*
X8204200Y-11557000D03*
X10744200Y-11557000D03*
X8204200Y-14097000D03*
X10744200Y-14097000D03*
X8204200Y-16637000D03*
X10744200Y-16637000D03*
X8204200Y-19177000D03*
X10744200Y-19177000D03*
X8204200Y-21717000D03*
X10744200Y-21717000D03*
X8204200Y-24257000D03*
X10744200Y-24257000D03*
X8204200Y-26797000D03*
X10744200Y-26797000D03*
X8204200Y-29337000D03*
X10744200Y-29337000D03*
X8204200Y-31877000D03*
X10744200Y-31877000D03*
X8204200Y-34417000D03*
X10744200Y-34417000D03*
X8204200Y-36957000D03*
X10744200Y-36957000D03*
X8204200Y-39497000D03*
X10744200Y-39497000D03*
X8204200Y-42037000D03*
X10744200Y-42037000D03*
X8204200Y-44577000D03*
X10744200Y-44577000D03*
X8204200Y-47117000D03*
X10744200Y-47117000D03*
X8204200Y-49657000D03*
X10744200Y-49657000D03*
X8204200Y-52197000D03*
X10744200Y-52197000D03*
X8204200Y-54737000D03*
X10744200Y-54737000D03*
D15*
X14709000Y-19227800D03*
X44069000Y-19227800D03*
D16*
X14732000Y-29768800D03*
X14732000Y-31038800D03*
X14732000Y-32308800D03*
X14732000Y-33578800D03*
X21082000Y-33578800D03*
X21082000Y-32308800D03*
X21082000Y-31038800D03*
X21082000Y-29768800D03*
D17*
X25069800Y-33552800D03*
X25069800Y-30302800D03*
D18*
X36886200Y-8153400D03*
X34386200Y-8153400D03*
D19*
X52886600Y-12573000D03*
X50186600Y-12573000D03*
X52886600Y-10439400D03*
X50186600Y-10439400D03*
X52886600Y-8305800D03*
X50186600Y-8305800D03*
D16*
X46736000Y-11988800D03*
X46736000Y-10718800D03*
X46736000Y-9448800D03*
X46736000Y-8178800D03*
X40386000Y-8178800D03*
X40386000Y-9448800D03*
X40386000Y-10718800D03*
X40386000Y-11988800D03*
D13*
X59461400Y-11252200D03*
D14*
X59461400Y-8712200D03*
D13*
X26847800Y-42240200D03*
D14*
X29387800Y-42240200D03*
X26847800Y-44780200D03*
X29387800Y-44780200D03*
X26847800Y-47320200D03*
X29387800Y-47320200D03*
X26847800Y-49860200D03*
X29387800Y-49860200D03*
X26847800Y-52400200D03*
X29387800Y-52400200D03*
X26847800Y-54940200D03*
X29387800Y-54940200D03*
D13*
X32131000Y-42240200D03*
D14*
X34671000Y-42240200D03*
X32131000Y-44780200D03*
X34671000Y-44780200D03*
X32131000Y-47320200D03*
X34671000Y-47320200D03*
X32131000Y-49860200D03*
X34671000Y-49860200D03*
X32131000Y-52400200D03*
X34671000Y-52400200D03*
X32131000Y-54940200D03*
X34671000Y-54940200D03*
D13*
X37515800Y-42240200D03*
D14*
X40055800Y-42240200D03*
X37515800Y-44780200D03*
X40055800Y-44780200D03*
X37515800Y-47320200D03*
X40055800Y-47320200D03*
X37515800Y-49860200D03*
X40055800Y-49860200D03*
X37515800Y-52400200D03*
X40055800Y-52400200D03*
X37515800Y-54940200D03*
X40055800Y-54940200D03*
D13*
X60731400Y-24714200D03*
D14*
X63271400Y-24714200D03*
X60731400Y-27254200D03*
X63271400Y-27254200D03*
X60731400Y-29794200D03*
X63271400Y-29794200D03*
X60731400Y-32334200D03*
X63271400Y-32334200D03*
X60731400Y-34874200D03*
X63271400Y-34874200D03*
X60731400Y-37414200D03*
X63271400Y-37414200D03*
X60731400Y-39954200D03*
X63271400Y-39954200D03*
X60731400Y-42494200D03*
X63271400Y-42494200D03*
X60731400Y-45034200D03*
X63271400Y-45034200D03*
X60731400Y-47574200D03*
X63271400Y-47574200D03*
D13*
X55499000Y-24714200D03*
D14*
X58039000Y-24714200D03*
X55499000Y-27254200D03*
X58039000Y-27254200D03*
X55499000Y-29794200D03*
X58039000Y-29794200D03*
X55499000Y-32334200D03*
X58039000Y-32334200D03*
X55499000Y-34874200D03*
X58039000Y-34874200D03*
X55499000Y-37414200D03*
X58039000Y-37414200D03*
X55499000Y-39954200D03*
X58039000Y-39954200D03*
X55499000Y-42494200D03*
X58039000Y-42494200D03*
X55499000Y-45034200D03*
X58039000Y-45034200D03*
X55499000Y-47574200D03*
X58039000Y-47574200D03*
D13*
X50266600Y-24714200D03*
D14*
X52806600Y-24714200D03*
X50266600Y-27254200D03*
X52806600Y-27254200D03*
X50266600Y-29794200D03*
X52806600Y-29794200D03*
X50266600Y-32334200D03*
X52806600Y-32334200D03*
X50266600Y-34874200D03*
X52806600Y-34874200D03*
X50266600Y-37414200D03*
X52806600Y-37414200D03*
X50266600Y-39954200D03*
X52806600Y-39954200D03*
X50266600Y-42494200D03*
X52806600Y-42494200D03*
X50266600Y-45034200D03*
X52806600Y-45034200D03*
X50266600Y-47574200D03*
X52806600Y-47574200D03*
D13*
X55753000Y-15468600D03*
D14*
X58293000Y-15468600D03*
X60833000Y-15468600D03*
X63373000Y-15468600D03*
D18*
X29997400Y-30353000D03*
X27497400Y-30353000D03*
X29997400Y-33553400D03*
X27497400Y-33553400D03*
D20*
X15113000Y-26777000D03*
X15113000Y-24277000D03*
D21*
X19837400Y-53314600D03*
D22*
X18567400Y-53314600D03*
D21*
X17297400Y-53314600D03*
X16027400Y-53314600D03*
D19*
X16353800Y-41376600D03*
X19053800Y-41376600D03*
X16353800Y-44272200D03*
X19053800Y-44272200D03*
X16353800Y-47218600D03*
X19053800Y-47218600D03*
D23*
X16353800Y-41376600D02*
X11822802Y-41376600D01*
X11822802Y-41376600D02*
X11308201Y-40861999D01*
X11308201Y-40861999D02*
X9379201Y-40861999D01*
X9379201Y-40861999D02*
X8204200Y-42037000D01*
X16353800Y-44272200D02*
X15353800Y-44272200D01*
X15353800Y-44272200D02*
X14483599Y-43401999D01*
X9379201Y-43401999D02*
X8204200Y-44577000D01*
X14483599Y-43401999D02*
X9379201Y-43401999D01*
X16353800Y-47218600D02*
X15353800Y-47218600D01*
X9379201Y-45941999D02*
X8204200Y-47117000D01*
X15353800Y-47218600D02*
X14077199Y-45941999D01*
X14077199Y-45941999D02*
X9379201Y-45941999D01*
X21082000Y-32308800D02*
X20764500Y-32308800D01*
X20764500Y-32308800D02*
X18803501Y-30347801D01*
X18803501Y-30347801D02*
X13900499Y-30347801D01*
X13900499Y-30347801D02*
X13835499Y-30282801D01*
X14709000Y-21232800D02*
X14709000Y-19227800D01*
X13835499Y-30282801D02*
X13835499Y-22106301D01*
X13835499Y-22106301D02*
X14709000Y-21232800D01*
D24*
X15113000Y-24277000D02*
X16138000Y-24277000D01*
X16138000Y-24277000D02*
X18530000Y-21885000D01*
X18530000Y-21885000D02*
X18530000Y-5270000D01*
X44069000Y-21382800D02*
X30831600Y-34620200D01*
X30831600Y-34620200D02*
X30623999Y-34827801D01*
X29997400Y-33553400D02*
X29997400Y-34578400D01*
X30039200Y-34620200D02*
X30831600Y-34620200D01*
X29997400Y-34578400D02*
X30039200Y-34620200D01*
X29997400Y-30353000D02*
X29997400Y-33553400D01*
X63271400Y-24714200D02*
X60579000Y-22021800D01*
X60579000Y-22021800D02*
X50538998Y-22021800D01*
X50538998Y-22021800D02*
X40055800Y-32504998D01*
X40055800Y-32504998D02*
X40055800Y-42240200D01*
X46093199Y-16718601D02*
X56870600Y-16718601D01*
X59543001Y-16718601D02*
X56870600Y-16718601D01*
X56870600Y-16718601D02*
X57042999Y-16718601D01*
X63271400Y-24714200D02*
X63271400Y-20447000D01*
X63271400Y-20447000D02*
X59543001Y-16718601D01*
X44069000Y-19227800D02*
X44069000Y-18742800D01*
X44069000Y-18742800D02*
X46093199Y-16718601D01*
X57042999Y-16718601D02*
X58293000Y-15468600D01*
X49010000Y-2730000D02*
X50273601Y-1466399D01*
X50273601Y-1466399D02*
X54696529Y-1466399D01*
X54696529Y-1466399D02*
X55366399Y-2136269D01*
X55366399Y-2136269D02*
X55366399Y-4006399D01*
X55366399Y-4006399D02*
X56630000Y-5270000D01*
X58293000Y-15468600D02*
X60711401Y-13050199D01*
X60711401Y-9962201D02*
X59461400Y-8712200D01*
X60711401Y-13050199D02*
X60711401Y-9962201D01*
X21082000Y-33578800D02*
X20764500Y-33578800D01*
X20764500Y-33578800D02*
X20110499Y-34232801D01*
X20110499Y-34232801D02*
X13100001Y-34232801D01*
X13100001Y-34232801D02*
X10744200Y-31877000D01*
X44069000Y-19227800D02*
X44069000Y-21382800D01*
X22053500Y-33578800D02*
X21082000Y-33578800D01*
X30623999Y-34827801D02*
X23302501Y-34827801D01*
X23302501Y-34827801D02*
X22053500Y-33578800D01*
X39576600Y-10718800D02*
X38887400Y-10029600D01*
X38887400Y-10029600D02*
X38850000Y-9992200D01*
X40386000Y-11988800D02*
X39414500Y-11988800D01*
X39414500Y-11988800D02*
X38887400Y-11461700D01*
X38887400Y-11461700D02*
X38887400Y-10029600D01*
X38850000Y-9992200D02*
X38850000Y-9372600D01*
X38850000Y-9372600D02*
X38850000Y-8153400D01*
X40386000Y-9448800D02*
X39414500Y-9448800D01*
X39414500Y-9448800D02*
X39338300Y-9372600D01*
X39338300Y-9372600D02*
X38850000Y-9372600D01*
X40386000Y-8178800D02*
X39414500Y-8178800D01*
X39414500Y-8178800D02*
X39389100Y-8153400D01*
X39389100Y-8153400D02*
X38850000Y-8153400D01*
X38850000Y-8153400D02*
X38850000Y-5270000D01*
X36886200Y-8153400D02*
X38850000Y-8153400D01*
X40386000Y-10718800D02*
X39576600Y-10718800D01*
X56630000Y-5270000D02*
X59461400Y-8101400D01*
X59461400Y-8101400D02*
X59461400Y-8712200D01*
X40404800Y-11988800D02*
X40386000Y-11988800D01*
X36886200Y-8089900D02*
X36886200Y-8153400D01*
X43930000Y-2730000D02*
X45293601Y-1366399D01*
X47646399Y-1366399D02*
X49010000Y-2730000D01*
X45293601Y-1366399D02*
X47646399Y-1366399D01*
X31230000Y-2730000D02*
X32593601Y-1366399D01*
X32593601Y-1366399D02*
X42566399Y-1366399D01*
X42566399Y-1366399D02*
X43930000Y-2730000D01*
X23610000Y-2730000D02*
X24973601Y-1366399D01*
X24973601Y-1366399D02*
X29866399Y-1366399D01*
X29866399Y-1366399D02*
X31230000Y-2730000D01*
X13450000Y-2730000D02*
X14813601Y-1366399D01*
X14813601Y-1366399D02*
X22246399Y-1366399D01*
X22246399Y-1366399D02*
X23610000Y-2730000D01*
X26847800Y-42240200D02*
X25597800Y-42240200D01*
X25597800Y-42240200D02*
X20796210Y-47041790D01*
X20796210Y-47041790D02*
X20796210Y-54105452D01*
X20796210Y-54105452D02*
X20234552Y-54667110D01*
X20234552Y-54667110D02*
X18567410Y-54667110D01*
X18567410Y-54667110D02*
X18567400Y-54667100D01*
X18567400Y-54667100D02*
X18567400Y-53314600D01*
X14732000Y-29114800D02*
X15417800Y-28429000D01*
X15417800Y-28429000D02*
X28690000Y-15156800D01*
X15113000Y-26777000D02*
X15113000Y-27927000D01*
X15113000Y-27927000D02*
X15417800Y-28231800D01*
X15417800Y-28231800D02*
X15417800Y-28429000D01*
X55753000Y-15468600D02*
X55753000Y-14218600D01*
X55753000Y-14218600D02*
X54107400Y-12573000D01*
X54107400Y-12573000D02*
X52886600Y-12573000D01*
X14732000Y-29768800D02*
X14732000Y-29114800D01*
X28690000Y-15156800D02*
X28690000Y-5270000D01*
X34386200Y-8153400D02*
X31573400Y-8153400D01*
X31573400Y-8153400D02*
X28690000Y-5270000D01*
X46736000Y-11988800D02*
X46736000Y-12642800D01*
X46736000Y-12642800D02*
X47716201Y-13623001D01*
X47716201Y-13623001D02*
X51736600Y-13623000D01*
X51736600Y-13623000D02*
X52786600Y-12573000D01*
X52786600Y-12573000D02*
X52886600Y-12573000D01*
X34386200Y-8153400D02*
X34511200Y-8153400D01*
X34511200Y-8153400D02*
X39000601Y-12642801D01*
X39000601Y-12642801D02*
X45764500Y-12642800D01*
X45764500Y-12642800D02*
X46418500Y-11988800D01*
X46418500Y-11988800D02*
X46736000Y-11988800D01*
X52886600Y-10439400D02*
X52886600Y-12573000D01*
X52886600Y-8305800D02*
X52886600Y-10439400D01*
X52814200Y-10367000D02*
X52886600Y-10439400D01*
X8204200Y-9017000D02*
X6954200Y-9017000D01*
X6954200Y-9017000D02*
X6504189Y-9467011D01*
X6504189Y-9467011D02*
X6504189Y-27636989D01*
X6504189Y-27636989D02*
X8204200Y-29337000D01*
X15049500Y-29768800D02*
X14732000Y-29768800D01*
X8370000Y-5270000D02*
X8370000Y-8851200D01*
X8370000Y-8851200D02*
X8204200Y-9017000D01*
D23*
X14732000Y-33578800D02*
X14414500Y-33578800D01*
X14414500Y-33578800D02*
X11347701Y-30512001D01*
X9569199Y-29901001D02*
X9569199Y-25457411D01*
X9569199Y-25457411D02*
X7665609Y-25457411D01*
X11347701Y-30512001D02*
X10180199Y-30512001D01*
X10180199Y-30512001D02*
X9569199Y-29901001D01*
X7665609Y-25457411D02*
X7029199Y-24821001D01*
X7029199Y-12732001D02*
X8204200Y-11557000D01*
X7029199Y-24821001D02*
X7029199Y-12732001D01*
X10910000Y-5270000D02*
X9569199Y-6610801D01*
X9569199Y-6610801D02*
X9569199Y-10192001D01*
X9569199Y-10192001D02*
X8204200Y-11557000D01*
X14732000Y-32308800D02*
X14414500Y-32308800D01*
X11919201Y-26232999D02*
X11118203Y-25432001D01*
X14414500Y-32308800D02*
X11919201Y-29813501D01*
X11919201Y-29813501D02*
X11919201Y-26232999D01*
X11118203Y-25432001D02*
X10180199Y-25432001D01*
X9379201Y-24631003D02*
X9379201Y-21164801D01*
X9379201Y-21164801D02*
X8768201Y-20553801D01*
X10180199Y-25432001D02*
X9379201Y-24631003D01*
X8768201Y-20553801D02*
X8768201Y-20352001D01*
X8768201Y-20352001D02*
X9379201Y-19741001D01*
X9379201Y-19741001D02*
X9379201Y-15272001D01*
X9379201Y-15272001D02*
X8204200Y-14097000D01*
D24*
X10910000Y-2730000D02*
X12186399Y-4006399D01*
X12186399Y-4006399D02*
X12186399Y-10114801D01*
X12186399Y-10114801D02*
X10744200Y-11557000D01*
D23*
X46736000Y-8178800D02*
X50059600Y-8178800D01*
X50059600Y-8178800D02*
X50186600Y-8305800D01*
X41390000Y-5270000D02*
X44298800Y-8178800D01*
X44298800Y-8178800D02*
X46736000Y-8178800D01*
X46863000Y-8305800D02*
X46736000Y-8178800D01*
X50186600Y-10439400D02*
X49186600Y-10439400D01*
X49186600Y-10439400D02*
X48196000Y-9448800D01*
X48196000Y-9448800D02*
X46736000Y-9448800D01*
X41390000Y-2730000D02*
X42741399Y-4081399D01*
X42741399Y-4081399D02*
X42741399Y-5840529D01*
X42741399Y-5840529D02*
X44231669Y-7330799D01*
X44231669Y-7330799D02*
X51196601Y-7330799D01*
X51196601Y-7330799D02*
X51261601Y-7395799D01*
X51261601Y-7395799D02*
X51261601Y-9464399D01*
X51261601Y-9464399D02*
X50286600Y-10439400D01*
X50286600Y-10439400D02*
X50186600Y-10439400D01*
X50161200Y-10464800D02*
X50186600Y-10439400D01*
X50186600Y-12573000D02*
X50286600Y-12573000D01*
X50286600Y-12573000D02*
X51811599Y-11048001D01*
X51811599Y-7395799D02*
X52476398Y-6731000D01*
X51811599Y-11048001D02*
X51811599Y-7395799D01*
X52476398Y-6731000D02*
X53840200Y-6731000D01*
X53840200Y-6731000D02*
X58361400Y-11252200D01*
X58361400Y-11252200D02*
X59461400Y-11252200D01*
X46736000Y-10718800D02*
X48332400Y-10718800D01*
X48332400Y-10718800D02*
X49186600Y-11573000D01*
X49186600Y-11573000D02*
X49186600Y-11673000D01*
X49186600Y-11673000D02*
X50086600Y-12573000D01*
X50086600Y-12573000D02*
X50186600Y-12573000D01*
X14859000Y-30848300D02*
X14859000Y-30911800D01*
X14859000Y-30911800D02*
X14732000Y-31038800D01*
X15049500Y-31038800D02*
X14732000Y-31038800D01*
X60833000Y-15468600D02*
X61682999Y-14618601D01*
X61682999Y-14618601D02*
X61682999Y-8956001D01*
X61682999Y-8956001D02*
X57818601Y-5091603D01*
X56500519Y-841389D02*
X13579481Y-841389D01*
X13579481Y-841389D02*
X12261399Y-2159471D01*
X57818601Y-5091603D02*
X57818601Y-2159471D01*
X57818601Y-2159471D02*
X56500519Y-841389D01*
X12261399Y-2159471D02*
X12261399Y-3300529D01*
X12261399Y-3300529D02*
X12879471Y-3918601D01*
X12879471Y-3918601D02*
X14801399Y-3918601D01*
X14801399Y-3918601D02*
X15990000Y-2730000D01*
X21082000Y-29768800D02*
X24535800Y-29768800D01*
X24535800Y-29768800D02*
X25069800Y-30302800D01*
X25069800Y-30302800D02*
X27447200Y-30302800D01*
X27447200Y-30302800D02*
X27497400Y-30353000D01*
X21082000Y-29768800D02*
X21399500Y-29768800D01*
X21082000Y-31038800D02*
X22555800Y-31038800D01*
X22555800Y-31038800D02*
X23919800Y-32402800D01*
X23919800Y-32402800D02*
X23919800Y-32427800D01*
X23919800Y-32427800D02*
X25044800Y-33552800D01*
X25044800Y-33552800D02*
X25069800Y-33552800D01*
X25069800Y-33552800D02*
X27496800Y-33552800D01*
X27496800Y-33552800D02*
X27497400Y-33553400D01*
X21082000Y-31038800D02*
X21399500Y-31038800D01*
X17297400Y-53314600D02*
X17297400Y-48975000D01*
X17297400Y-48975000D02*
X19053800Y-47218600D01*
X19126200Y-47291000D02*
X19053800Y-47218600D01*
X16027400Y-53314600D02*
X16027400Y-49530002D01*
X16027400Y-49530002D02*
X17978799Y-47578603D01*
X17978799Y-46247201D02*
X19053800Y-45172200D01*
X17978799Y-47578603D02*
X17978799Y-46247201D01*
X19053800Y-45172200D02*
X19053800Y-44272200D01*
X18953800Y-44272200D02*
X19053800Y-44272200D01*
X19837400Y-53314600D02*
X19837400Y-48420002D01*
X19837400Y-48420002D02*
X20128801Y-48128601D01*
X20128801Y-48128601D02*
X20128801Y-43351601D01*
X19053800Y-42276600D02*
X19053800Y-41376600D01*
X20128801Y-43351601D02*
X19053800Y-42276600D01*
M02*
